M48
; DRILL file {KiCad (6.0.9)} date Mon Jan  9 14:55:00 2023
; FORMAT={-:-/ absolute / inch / decimal}
; #@! TF.CreationDate,2023-01-09T14:55:00+01:00
; #@! TF.GenerationSoftware,Kicad,Pcbnew,(6.0.9)
; #@! TF.FileFunction,Plated,1,2,PTH
FMAT,2
INCH
; #@! TA.AperFunction,Plated,PTH,ViaDrill
T1C0.0157
; #@! TA.AperFunction,Plated,PTH,ComponentDrill
T2C0.0394
; #@! TA.AperFunction,Plated,PTH,ComponentDrill
T3C0.0591
%
G90
G05
T1
X5.5246Y-5.4528
X5.6101Y-3.9352
X5.8071Y-3.6356
X5.8357Y-2.7616
X6.0725Y-2.9435
X6.0838Y-3.6866
X6.1196Y-3.9352
X6.1288Y-3.2975
X6.1872Y-3.7377
X6.2159Y-3.6616
X6.2859Y-3.4989
X6.3094Y-3.4626
X6.3161Y-3.7491
X6.3183Y-3.9444
X6.3398Y-3.8744
X6.3575Y-3.3905
X6.3586Y-2.5881
X6.3587Y-2.7933
X6.3877Y-2.627
X6.3896Y-5.0106
X6.4107Y-3.5395
X6.4157Y-3.8618
X6.4183Y-3.6906
X6.437Y-3.1693
X6.463Y-3.6871
X6.4635Y-4.8201
X6.5364Y-3.8453
X6.6364Y-4.0071
X6.6532Y-3.4866
X6.6624Y-3.4116
X6.7061Y-3.3276
X6.7285Y-3.8754
X6.7402Y-5.2047
X6.7709Y-4.2407
X6.8969Y-4.2104
X7.0775Y-3.9939
X7.0862Y-3.853
T2
X6.2764Y-5.4528
X6.2764Y-5.5528
X6.3764Y-5.4528
X6.3764Y-5.5528
X6.4764Y-5.4528
X6.4764Y-5.5528
T3
X5.8435Y-4.685
X6.6502Y-4.685
T0
M30
