%TF.GenerationSoftware,KiCad,Pcbnew,(6.0.9)*%
%TF.CreationDate,2023-01-09T21:04:10+01:00*%
%TF.ProjectId,christmas_tree,63687269-7374-46d6-9173-5f747265652e,rev?*%
%TF.SameCoordinates,Original*%
%TF.FileFunction,Copper,L1,Top*%
%TF.FilePolarity,Positive*%
%FSLAX46Y46*%
G04 Gerber Fmt 4.6, Leading zero omitted, Abs format (unit mm)*
G04 Created by KiCad (PCBNEW (6.0.9)) date 2023-01-09 21:04:10*
%MOMM*%
%LPD*%
G01*
G04 APERTURE LIST*
G04 Aperture macros list*
%AMRoundRect*
0 Rectangle with rounded corners*
0 $1 Rounding radius*
0 $2 $3 $4 $5 $6 $7 $8 $9 X,Y pos of 4 corners*
0 Add a 4 corners polygon primitive as box body*
4,1,4,$2,$3,$4,$5,$6,$7,$8,$9,$2,$3,0*
0 Add four circle primitives for the rounded corners*
1,1,$1+$1,$2,$3*
1,1,$1+$1,$4,$5*
1,1,$1+$1,$6,$7*
1,1,$1+$1,$8,$9*
0 Add four rect primitives between the rounded corners*
20,1,$1+$1,$2,$3,$4,$5,0*
20,1,$1+$1,$4,$5,$6,$7,0*
20,1,$1+$1,$6,$7,$8,$9,0*
20,1,$1+$1,$8,$9,$2,$3,0*%
G04 Aperture macros list end*
%TA.AperFunction,SMDPad,CuDef*%
%ADD10RoundRect,0.243750X-0.243750X-0.456250X0.243750X-0.456250X0.243750X0.456250X-0.243750X0.456250X0*%
%TD*%
%TA.AperFunction,SMDPad,CuDef*%
%ADD11RoundRect,0.250000X-0.262500X-0.450000X0.262500X-0.450000X0.262500X0.450000X-0.262500X0.450000X0*%
%TD*%
%TA.AperFunction,SMDPad,CuDef*%
%ADD12R,0.400000X1.900000*%
%TD*%
%TA.AperFunction,SMDPad,CuDef*%
%ADD13RoundRect,0.243750X-0.225841X0.465375X-0.512387X0.070979X0.225841X-0.465375X0.512387X-0.070979X0*%
%TD*%
%TA.AperFunction,SMDPad,CuDef*%
%ADD14RoundRect,0.243750X0.090831X0.509242X-0.372809X0.358597X-0.090831X-0.509242X0.372809X-0.358597X0*%
%TD*%
%TA.AperFunction,SMDPad,CuDef*%
%ADD15RoundRect,0.243750X0.372809X0.358597X-0.090831X0.509242X-0.372809X-0.358597X0.090831X-0.509242X0*%
%TD*%
%TA.AperFunction,SMDPad,CuDef*%
%ADD16RoundRect,0.243750X-0.456250X0.243750X-0.456250X-0.243750X0.456250X-0.243750X0.456250X0.243750X0*%
%TD*%
%TA.AperFunction,SMDPad,CuDef*%
%ADD17RoundRect,0.243750X0.243750X0.456250X-0.243750X0.456250X-0.243750X-0.456250X0.243750X-0.456250X0*%
%TD*%
%TA.AperFunction,SMDPad,CuDef*%
%ADD18RoundRect,0.243750X-0.512387X-0.070979X-0.225841X-0.465375X0.512387X0.070979X0.225841X0.465375X0*%
%TD*%
%TA.AperFunction,ComponentPad*%
%ADD19RoundRect,0.250000X0.600000X-0.600000X0.600000X0.600000X-0.600000X0.600000X-0.600000X-0.600000X0*%
%TD*%
%TA.AperFunction,ComponentPad*%
%ADD20C,1.700000*%
%TD*%
%TA.AperFunction,ComponentPad*%
%ADD21R,3.000000X3.000000*%
%TD*%
%TA.AperFunction,ComponentPad*%
%ADD22C,3.000000*%
%TD*%
%TA.AperFunction,ViaPad*%
%ADD23C,0.800000*%
%TD*%
%TA.AperFunction,Conductor*%
%ADD24C,0.250000*%
%TD*%
G04 APERTURE END LIST*
D10*
%TO.P,D21,1,K*%
%TO.N,/A4*%
X190062500Y-138000000D03*
%TO.P,D21,2,A*%
%TO.N,Net-(D1-Pad2)*%
X191937500Y-138000000D03*
%TD*%
D11*
%TO.P,R3,1*%
%TO.N,/D6*%
X177500000Y-125000000D03*
%TO.P,R3,2*%
%TO.N,Net-(D12-Pad2)*%
X179325000Y-125000000D03*
%TD*%
D12*
%TO.P,Y1,1,1*%
%TO.N,/XTAL2*%
X162960000Y-100290000D03*
%TO.P,Y1,2,2*%
%TO.N,/GND*%
X164160000Y-100290000D03*
%TO.P,Y1,3,3*%
%TO.N,/XTAL1*%
X165360000Y-100290000D03*
%TD*%
D13*
%TO.P,D25,1,K*%
%TO.N,/A4*%
X160618049Y-57924047D03*
%TO.P,D25,2,A*%
%TO.N,Net-(D10-Pad2)*%
X159515951Y-59440953D03*
%TD*%
D10*
%TO.P,D8,1,K*%
%TO.N,/A1*%
X153562500Y-97500000D03*
%TO.P,D8,2,A*%
%TO.N,Net-(D13-Pad2)*%
X155437500Y-97500000D03*
%TD*%
%TO.P,D1,1,K*%
%TO.N,/A0*%
X131562500Y-136500000D03*
%TO.P,D1,2,A*%
%TO.N,Net-(D1-Pad2)*%
X133437500Y-136500000D03*
%TD*%
D14*
%TO.P,D10,1,K*%
%TO.N,/A1*%
X166051615Y-54690297D03*
%TO.P,D10,2,A*%
%TO.N,Net-(D10-Pad2)*%
X164268385Y-55269703D03*
%TD*%
D10*
%TO.P,D3,1,K*%
%TO.N,/A0*%
X139500000Y-101500000D03*
%TO.P,D3,2,A*%
%TO.N,Net-(D13-Pad2)*%
X141375000Y-101500000D03*
%TD*%
%TO.P,D13,1,K*%
%TO.N,/A2*%
X168062500Y-93500000D03*
%TO.P,D13,2,A*%
%TO.N,Net-(D13-Pad2)*%
X169937500Y-93500000D03*
%TD*%
D15*
%TO.P,D20,1,K*%
%TO.N,/A3*%
X159731615Y-55229703D03*
%TO.P,D20,2,A*%
%TO.N,Net-(D10-Pad2)*%
X157948385Y-54650297D03*
%TD*%
D16*
%TO.P,D15,1,K*%
%TO.N,/A2*%
X162000000Y-51625000D03*
%TO.P,D15,2,A*%
%TO.N,Net-(D10-Pad2)*%
X162000000Y-53500000D03*
%TD*%
D10*
%TO.P,D18,1,K*%
%TO.N,/A3*%
X181112500Y-101220000D03*
%TO.P,D18,2,A*%
%TO.N,Net-(D13-Pad2)*%
X182987500Y-101220000D03*
%TD*%
%TO.P,D6,1,K*%
%TO.N,/A1*%
X147500000Y-133500000D03*
%TO.P,D6,2,A*%
%TO.N,Net-(D1-Pad2)*%
X149375000Y-133500000D03*
%TD*%
%TO.P,D22,1,K*%
%TO.N,/A4*%
X170105000Y-109050000D03*
%TO.P,D22,2,A*%
%TO.N,Net-(D12-Pad2)*%
X171980000Y-109050000D03*
%TD*%
D11*
%TO.P,R2,1*%
%TO.N,/D5*%
X137175000Y-143500000D03*
%TO.P,R2,2*%
%TO.N,Net-(D1-Pad2)*%
X139000000Y-143500000D03*
%TD*%
D10*
%TO.P,D24,1,K*%
%TO.N,/A4*%
X147562500Y-71500000D03*
%TO.P,D24,2,A*%
%TO.N,Net-(D14-Pad2)*%
X149437500Y-71500000D03*
%TD*%
D17*
%TO.P,D14,1,K*%
%TO.N,/A2*%
X173937500Y-70000000D03*
%TO.P,D14,2,A*%
%TO.N,Net-(D14-Pad2)*%
X172062500Y-70000000D03*
%TD*%
D10*
%TO.P,D11,1,K*%
%TO.N,/A2*%
X177625000Y-142000000D03*
%TO.P,D11,2,A*%
%TO.N,Net-(D1-Pad2)*%
X179500000Y-142000000D03*
%TD*%
D11*
%TO.P,R5,1*%
%TO.N,/D8*%
X147500000Y-91000000D03*
%TO.P,R5,2*%
%TO.N,Net-(D14-Pad2)*%
X149325000Y-91000000D03*
%TD*%
D18*
%TO.P,D5,1,K*%
%TO.N,/A0*%
X163428951Y-57941547D03*
%TO.P,D5,2,A*%
%TO.N,Net-(D10-Pad2)*%
X164531049Y-59458453D03*
%TD*%
D10*
%TO.P,D2,1,K*%
%TO.N,/A0*%
X179062500Y-116500000D03*
%TO.P,D2,2,A*%
%TO.N,Net-(D12-Pad2)*%
X180937500Y-116500000D03*
%TD*%
%TO.P,D16,1,K*%
%TO.N,/A3*%
X175125000Y-131500000D03*
%TO.P,D16,2,A*%
%TO.N,Net-(D1-Pad2)*%
X177000000Y-131500000D03*
%TD*%
D11*
%TO.P,R6,1*%
%TO.N,/D9*%
X163000000Y-71500000D03*
%TO.P,R6,2*%
%TO.N,Net-(D10-Pad2)*%
X164825000Y-71500000D03*
%TD*%
D10*
%TO.P,D12,1,K*%
%TO.N,/A2*%
X151562500Y-124000000D03*
%TO.P,D12,2,A*%
%TO.N,Net-(D12-Pad2)*%
X153437500Y-124000000D03*
%TD*%
D11*
%TO.P,R1,1*%
%TO.N,/VCC*%
X138500000Y-128500000D03*
%TO.P,R1,2*%
%TO.N,/RESET*%
X140325000Y-128500000D03*
%TD*%
D10*
%TO.P,D23,1,K*%
%TO.N,/A4*%
X172932500Y-87380000D03*
%TO.P,D23,2,A*%
%TO.N,Net-(D13-Pad2)*%
X174807500Y-87380000D03*
%TD*%
D11*
%TO.P,R4,1*%
%TO.N,/D7*%
X160587500Y-112000000D03*
%TO.P,R4,2*%
%TO.N,Net-(D13-Pad2)*%
X162412500Y-112000000D03*
%TD*%
D10*
%TO.P,D17,1,K*%
%TO.N,/A3*%
X149562500Y-110000000D03*
%TO.P,D17,2,A*%
%TO.N,Net-(D12-Pad2)*%
X151437500Y-110000000D03*
%TD*%
%TO.P,D7,1,K*%
%TO.N,/A1*%
X163062500Y-129500000D03*
%TO.P,D7,2,A*%
%TO.N,Net-(D12-Pad2)*%
X164937500Y-129500000D03*
%TD*%
%TO.P,D19,1,K*%
%TO.N,/A3*%
X158062500Y-65500000D03*
%TO.P,D19,2,A*%
%TO.N,Net-(D14-Pad2)*%
X159937500Y-65500000D03*
%TD*%
D17*
%TO.P,D9,1,K*%
%TO.N,/A1*%
X167100000Y-76300000D03*
%TO.P,D9,2,A*%
%TO.N,Net-(D14-Pad2)*%
X165225000Y-76300000D03*
%TD*%
D10*
%TO.P,D4,1,K*%
%TO.N,/A0*%
X155672500Y-82440000D03*
%TO.P,D4,2,A*%
%TO.N,Net-(D14-Pad2)*%
X157547500Y-82440000D03*
%TD*%
D19*
%TO.P,J2,1,MISO*%
%TO.N,/D12*%
X164500000Y-141040000D03*
D20*
%TO.P,J2,2,VCC*%
%TO.N,/VCC*%
X164500000Y-138500000D03*
%TO.P,J2,3,SCK*%
%TO.N,/D13*%
X161960000Y-141040000D03*
%TO.P,J2,4,MOSI*%
%TO.N,/D11*%
X161960000Y-138500000D03*
%TO.P,J2,5,~{RST}*%
%TO.N,/RESET*%
X159420000Y-141040000D03*
%TO.P,J2,6,GND*%
%TO.N,/GND*%
X159420000Y-138500000D03*
%TD*%
D21*
%TO.P,BT1,1,+*%
%TO.N,Net-(BT1-Pad1)*%
X148425000Y-119000000D03*
D22*
%TO.P,BT1,2,-*%
%TO.N,/GND*%
X168915000Y-119000000D03*
%TD*%
D23*
%TO.N,/GND*%
X164160000Y-93653600D03*
%TO.N,/VCC*%
X163026000Y-93741600D03*
X171200000Y-132200000D03*
%TO.N,Net-(D12-Pad2)*%
X160486000Y-100189000D03*
X171980000Y-107715000D03*
%TO.N,Net-(D13-Pad2)*%
X142497000Y-99955000D03*
X160428000Y-95227600D03*
X155438000Y-99955000D03*
X170905000Y-98435900D03*
%TO.N,Net-(D14-Pad2)*%
X161512000Y-70948900D03*
X154242000Y-74764900D03*
%TO.N,/D11*%
X162297000Y-127270000D03*
X161030000Y-98409400D03*
%TO.N,/RESET*%
X164173000Y-122430000D03*
X140325000Y-138500000D03*
X162832000Y-89902100D03*
%TO.N,/D5*%
X157885000Y-93004000D03*
%TO.N,/D6*%
X175182000Y-106943000D03*
%TO.N,/D7*%
X157155000Y-94938700D03*
%TO.N,/D8*%
X147500000Y-92343900D03*
X154528000Y-93639400D03*
X159661000Y-88870800D03*
%TO.N,/D9*%
X160259000Y-87949200D03*
%TO.N,/XTAL1*%
X166025000Y-97669600D03*
%TO.N,/XTAL2*%
X162960000Y-98089300D03*
%TO.N,/A0*%
X162248000Y-66725300D03*
X179769600Y-101444100D03*
X155672000Y-83757400D03*
%TO.N,/A1*%
X163500000Y-80500000D03*
%TO.N,/A2*%
X169226000Y-86654200D03*
%TO.N,/A3*%
X168564000Y-101780000D03*
X179989000Y-97867200D03*
X161480000Y-86118100D03*
%TO.N,/A4*%
X170335000Y-84522300D03*
X148227000Y-70145500D03*
X161508000Y-65738800D03*
X168992000Y-88559000D03*
%TD*%
D24*
%TO.N,/GND*%
X165074000Y-115158000D02*
X165074000Y-102479000D01*
X164160000Y-101565000D02*
X164160000Y-100290000D01*
X164160000Y-100290000D02*
X164160000Y-93653600D01*
X165074000Y-102479000D02*
X164160000Y-101565000D01*
X168915000Y-119000000D02*
X165074000Y-115158000D01*
%TO.N,/VCC*%
X138500000Y-128500000D02*
X139550000Y-127450000D01*
X164441000Y-92892400D02*
X163875000Y-92892400D01*
X163875000Y-92892400D02*
X163026000Y-93741600D01*
X167249000Y-114123000D02*
X167249000Y-95700000D01*
X171200000Y-132200000D02*
X170751000Y-131751000D01*
X167249000Y-95700000D02*
X164441000Y-92892400D01*
X170751000Y-131751000D02*
X170751000Y-117625000D01*
X152572000Y-127450000D02*
X163622000Y-138500000D01*
X163622000Y-138500000D02*
X164500000Y-138500000D01*
X170751000Y-117625000D02*
X167249000Y-114123000D01*
X139550000Y-127450000D02*
X152572000Y-127450000D01*
%TO.N,Net-(D1-Pad2)*%
X133437500Y-136500000D02*
X133438000Y-136500000D01*
X158925000Y-143050000D02*
X178450000Y-143050000D01*
X179500000Y-136964000D02*
X190902000Y-136964000D01*
X137973000Y-144527000D02*
X136653000Y-144527000D01*
X178450000Y-143050000D02*
X179500000Y-142000000D01*
X139000000Y-143500000D02*
X137973000Y-144527000D01*
X136653000Y-144527000D02*
X133438000Y-141312000D01*
X179500000Y-136964000D02*
X179500000Y-142000000D01*
X191937500Y-137999500D02*
X191938000Y-138000000D01*
X139375000Y-143500000D02*
X139000000Y-143500000D01*
X177000000Y-131500000D02*
X179500000Y-134000000D01*
X149375000Y-133500000D02*
X158925000Y-143050000D01*
X190902000Y-136964000D02*
X191937500Y-137999500D01*
X149375000Y-133500000D02*
X139375000Y-143500000D01*
X179500000Y-134000000D02*
X179500000Y-136964000D01*
X191937500Y-137999500D02*
X191937500Y-138000000D01*
X133438000Y-141312000D02*
X133438000Y-136500000D01*
%TO.N,Net-(D12-Pad2)*%
X171980000Y-109050000D02*
X171980000Y-107715000D01*
X161967000Y-127995000D02*
X159140000Y-125168000D01*
X160486000Y-108525000D02*
X160486000Y-100189000D01*
X153438000Y-118634000D02*
X153437500Y-118634500D01*
X152437500Y-111000000D02*
X151437500Y-110000000D01*
X163432000Y-127995000D02*
X161967000Y-127995000D01*
X159140000Y-125168000D02*
X159140000Y-124000000D01*
X163272000Y-111312000D02*
X160486000Y-108525000D01*
X177023000Y-126077000D02*
X172650000Y-121704000D01*
X172650000Y-109720000D02*
X171980000Y-109050000D01*
X153438000Y-124000000D02*
X159140000Y-124000000D01*
X178248000Y-126077000D02*
X177023000Y-126077000D01*
X179325000Y-125000000D02*
X180938000Y-123388000D01*
X180938000Y-123388000D02*
X180938000Y-116500000D01*
X163272000Y-112776000D02*
X163272000Y-111312000D01*
X164937500Y-129499900D02*
X164937500Y-129500000D01*
X172650000Y-121704000D02*
X172650000Y-109720000D01*
X164335600Y-128898000D02*
X163432000Y-127995000D01*
X159140000Y-124000000D02*
X159140000Y-116909000D01*
X153438000Y-112000000D02*
X153438000Y-118634000D01*
X164335600Y-128898000D02*
X164937500Y-129499900D01*
X153437500Y-118634500D02*
X153437500Y-124000000D01*
X179325000Y-125000000D02*
X178248000Y-126077000D01*
X152438000Y-111000000D02*
X153438000Y-112000000D01*
X159140000Y-116909000D02*
X163272000Y-112776000D01*
X151438000Y-110000000D02*
X152438000Y-111000000D01*
X164938000Y-129500000D02*
X164335600Y-128898000D01*
X153438000Y-118634000D02*
X153438000Y-124000000D01*
X152438000Y-111000000D02*
X152437500Y-111000000D01*
%TO.N,Net-(D13-Pad2)*%
X155438000Y-99955000D02*
X155438000Y-97790000D01*
X161370000Y-113043000D02*
X160066000Y-113043000D01*
X142497000Y-100378000D02*
X142497000Y-99955000D01*
X160066000Y-113043000D02*
X155438000Y-108414000D01*
X182988000Y-99805600D02*
X180288000Y-97105800D01*
X182988000Y-101220000D02*
X182988000Y-100512800D01*
X156849000Y-94213400D02*
X159414000Y-94213400D01*
X172230000Y-88411600D02*
X171671000Y-87852000D01*
X171298000Y-87852000D02*
X169938000Y-89212200D01*
X170905000Y-94467500D02*
X170905000Y-97105800D01*
X182988000Y-100512800D02*
X182987500Y-100513300D01*
X161891000Y-112521500D02*
X162412500Y-112000000D01*
X155438000Y-97790000D02*
X155438000Y-95625000D01*
X182988000Y-100512800D02*
X182988000Y-99805600D01*
X170905000Y-97105800D02*
X170905000Y-98435900D01*
X169938000Y-93500000D02*
X170905000Y-94467500D01*
X155438000Y-95625000D02*
X156849000Y-94213400D01*
X162412000Y-112000000D02*
X161891000Y-112521500D01*
X159414000Y-94213400D02*
X160428000Y-95227600D01*
X182987500Y-100513300D02*
X182987500Y-101220000D01*
X169938000Y-91356100D02*
X169938000Y-93500000D01*
X155437500Y-97789500D02*
X155437500Y-97500000D01*
X155438000Y-108414000D02*
X155438000Y-99955000D01*
X169938000Y-89212200D02*
X169938000Y-91356100D01*
X141375000Y-101500000D02*
X142497000Y-100378000D01*
X161891000Y-112521500D02*
X161370000Y-113043000D01*
X169938000Y-91356100D02*
X169937500Y-91356600D01*
X171671000Y-87852000D02*
X171298000Y-87852000D01*
X169937500Y-91356600D02*
X169937500Y-93500000D01*
X155438000Y-97790000D02*
X155437500Y-97789500D01*
X174808000Y-87380000D02*
X173776000Y-88411600D01*
X173776000Y-88411600D02*
X172230000Y-88411600D01*
X180288000Y-97105800D02*
X170905000Y-97105800D01*
%TO.N,Net-(D14-Pad2)*%
X168235600Y-72564400D02*
X169700000Y-71100000D01*
X157548000Y-82440000D02*
X157548000Y-82994800D01*
X164287000Y-72564400D02*
X164287000Y-75362000D01*
X149438000Y-71500000D02*
X149437500Y-71500000D01*
X159938000Y-66136800D02*
X160157000Y-66356100D01*
X163912000Y-72189800D02*
X164287000Y-72564400D01*
X160157000Y-67094800D02*
X162762000Y-69699600D01*
X170962500Y-71100000D02*
X172062500Y-70000000D01*
X159938000Y-65500000D02*
X159938000Y-66136800D01*
X157547500Y-82440000D02*
X157548000Y-82440000D01*
X162762000Y-69699600D02*
X163912000Y-70850400D01*
X159937500Y-65500000D02*
X159938000Y-65500000D01*
X157548000Y-78070800D02*
X157548000Y-82440000D01*
X157548000Y-82994800D02*
X149542000Y-91000000D01*
X169700000Y-71100000D02*
X170962500Y-71100000D01*
X154242000Y-74764900D02*
X157548000Y-78070800D01*
X160157000Y-66356100D02*
X160157000Y-67094800D01*
X163912000Y-70850400D02*
X163912000Y-72189800D01*
X164287000Y-75362000D02*
X165225000Y-76300000D01*
X164287000Y-72564400D02*
X168235600Y-72564400D01*
X149438000Y-71500000D02*
X150977000Y-71500000D01*
X150977000Y-71500000D02*
X154242000Y-74764900D01*
X162762000Y-69699600D02*
X161512000Y-70948900D01*
X149542000Y-91000000D02*
X149325000Y-91000000D01*
%TO.N,Net-(D10-Pad2)*%
X159098682Y-53500000D02*
X157948385Y-54650297D01*
X164825000Y-67791200D02*
X164825000Y-71500000D01*
X162000000Y-53500000D02*
X159098682Y-53500000D01*
X160751000Y-60676200D02*
X160751000Y-66313600D01*
X164531000Y-67497200D02*
X164531000Y-55532318D01*
X160751000Y-66313600D02*
X161935000Y-67497200D01*
X163769700Y-55269700D02*
X162000000Y-53500000D01*
X164268400Y-55269700D02*
X163769700Y-55269700D01*
X164531000Y-67497200D02*
X164825000Y-67791200D01*
X161935000Y-67497200D02*
X164531000Y-67497200D01*
X159516000Y-59441000D02*
X160751000Y-60676200D01*
X164531000Y-55532318D02*
X164268385Y-55269703D01*
%TO.N,/D11*%
X162297000Y-127270000D02*
X162297000Y-114455000D01*
X161211000Y-98591100D02*
X161030000Y-98409400D01*
X161211000Y-108614000D02*
X161211000Y-98591100D01*
X162297000Y-114455000D02*
X163723000Y-113030000D01*
X163723000Y-113030000D02*
X163723000Y-111125000D01*
X163723000Y-111125000D02*
X161211000Y-108614000D01*
%TO.N,/RESET*%
X140325000Y-128500000D02*
X140325000Y-138500000D01*
X164173000Y-110938000D02*
X161784000Y-108549000D01*
X161784000Y-90950900D02*
X162832000Y-89902100D01*
X161784000Y-108549000D02*
X161784000Y-90950900D01*
X164173000Y-122430000D02*
X164173000Y-110938000D01*
%TO.N,/D5*%
X137175000Y-126633000D02*
X150399000Y-113409000D01*
X150399000Y-104230000D02*
X154624000Y-100005000D01*
X154624000Y-100005000D02*
X154624000Y-95801900D01*
X154624000Y-95801900D02*
X157422000Y-93004000D01*
X150399000Y-113409000D02*
X150399000Y-104230000D01*
X157422000Y-93004000D02*
X157885000Y-93004000D01*
X137175000Y-143500000D02*
X137175000Y-126633000D01*
%TO.N,/D6*%
X175182000Y-106943000D02*
X175182000Y-122682000D01*
X175182000Y-122682000D02*
X177500000Y-125000000D01*
%TO.N,/D7*%
X160588000Y-112000000D02*
X159214800Y-110627200D01*
X160587500Y-111999900D02*
X160587500Y-112000000D01*
X157155000Y-108568000D02*
X157155000Y-94938700D01*
X159214800Y-110627200D02*
X157155000Y-108568000D01*
X159214800Y-110627200D02*
X160587500Y-111999900D01*
%TO.N,/D8*%
X147500000Y-91000000D02*
X147500000Y-92343900D01*
X159661000Y-88870800D02*
X159296000Y-88870800D01*
X159296000Y-88870800D02*
X154528000Y-93639400D01*
%TO.N,/D9*%
X163000000Y-71500000D02*
X162205000Y-72294600D01*
X160677000Y-87949200D02*
X160259000Y-87949200D01*
X162205000Y-86420600D02*
X160677000Y-87949200D01*
X162205000Y-72294600D02*
X162205000Y-86420600D01*
%TO.N,/XTAL1*%
X165360000Y-99014700D02*
X166025000Y-98349600D01*
X166025000Y-98349600D02*
X166025000Y-97669600D01*
X165360000Y-100290000D02*
X165360000Y-99014700D01*
%TO.N,/XTAL2*%
X162960000Y-100290000D02*
X162960000Y-98089300D01*
%TO.N,/A0*%
X131562000Y-131609000D02*
X131562000Y-136500000D01*
X155672000Y-83757400D02*
X154978000Y-83757400D01*
X148412000Y-92587500D02*
X139500000Y-101500000D01*
X147361000Y-105813000D02*
X147361000Y-115810000D01*
X146778000Y-105230000D02*
X147361000Y-105813000D01*
X148412000Y-90322600D02*
X148412000Y-92587500D01*
X143230000Y-105230000D02*
X146778000Y-105230000D01*
X139500000Y-101500000D02*
X139659000Y-101659000D01*
X139659000Y-101659000D02*
X143230000Y-105230000D01*
X155672000Y-83098700D02*
X155672000Y-82440000D01*
X147361000Y-115810000D02*
X131562000Y-131609000D01*
X163429000Y-65544600D02*
X163429000Y-57941500D01*
X162248000Y-66725300D02*
X163429000Y-65544600D01*
X139500000Y-101500000D02*
X139659000Y-101659000D01*
X179769600Y-101444100D02*
X176657000Y-104556700D01*
X155672000Y-83098700D02*
X155672500Y-83098200D01*
X154978000Y-83757400D02*
X148412000Y-90322600D01*
X155672500Y-83098200D02*
X155672500Y-82440000D01*
X176657000Y-104556700D02*
X176657000Y-114094500D01*
X176657000Y-114094500D02*
X179062500Y-116500000D01*
X155672000Y-83757400D02*
X155672000Y-83098700D01*
%TO.N,/A1*%
X171300000Y-64400000D02*
X171300000Y-65858166D01*
X162234000Y-93495200D02*
X163573000Y-92156500D01*
X153562000Y-96226200D02*
X153562000Y-96863100D01*
X152376000Y-124495000D02*
X157381000Y-129500000D01*
X151104000Y-122937000D02*
X152057000Y-122937000D01*
X167600000Y-58800000D02*
X167600000Y-60700000D01*
X160785000Y-138987000D02*
X161473000Y-139675000D01*
X150738000Y-124770000D02*
X150738000Y-123304000D01*
X164623000Y-110752000D02*
X162234000Y-108362000D01*
X153562000Y-96863100D02*
X153562000Y-97500000D01*
X164623000Y-120993000D02*
X164623000Y-110752000D01*
X164102000Y-130540000D02*
X165426000Y-130540000D01*
X167491204Y-76300000D02*
X167100000Y-76300000D01*
X166051615Y-57251615D02*
X167600000Y-58800000D01*
X160785000Y-138135000D02*
X160785000Y-138987000D01*
X165562500Y-87131400D02*
X163332100Y-89361800D01*
X167100000Y-76300000D02*
X167100000Y-76900000D01*
X167100000Y-76900000D02*
X163500000Y-80500000D01*
X153562000Y-96863100D02*
X153562500Y-96863600D01*
X163145000Y-89174800D02*
X160614000Y-89174800D01*
X163573000Y-89602600D02*
X163332100Y-89361800D01*
X165812000Y-122181000D02*
X164623000Y-120993000D01*
X163062000Y-129500000D02*
X163062500Y-129500500D01*
X164987000Y-139675000D02*
X165675000Y-138987000D01*
X163293000Y-137325000D02*
X150738000Y-124770000D01*
X165562500Y-82562500D02*
X165562500Y-87131400D01*
X153562500Y-96863600D02*
X153562500Y-97500000D01*
X157381000Y-129500000D02*
X163062000Y-129500000D01*
X172875000Y-70916204D02*
X167491204Y-76300000D01*
X161473000Y-139675000D02*
X164987000Y-139675000D01*
X163500000Y-80500000D02*
X165562500Y-82562500D01*
X163573000Y-92156500D02*
X163573000Y-89602600D01*
X152057000Y-122937000D02*
X152376000Y-123257000D01*
X155114000Y-132464000D02*
X160785000Y-138135000D01*
X160614000Y-89174800D02*
X153562000Y-96226200D01*
X165812000Y-130154000D02*
X165812000Y-122181000D01*
X171300000Y-65858166D02*
X172875000Y-67433166D01*
X163062500Y-129500500D02*
X164102000Y-130540000D01*
X162234000Y-108362000D02*
X162234000Y-93495200D01*
X167600000Y-60700000D02*
X171300000Y-64400000D01*
X165426000Y-130540000D02*
X165812000Y-130154000D01*
X166051615Y-54690297D02*
X166051615Y-57251615D01*
X164987000Y-137325000D02*
X163293000Y-137325000D01*
X152376000Y-123257000D02*
X152376000Y-124495000D01*
X165675000Y-138987000D02*
X165675000Y-138013000D01*
X172875000Y-67433166D02*
X172875000Y-70916204D01*
X148536000Y-132464000D02*
X155114000Y-132464000D01*
X150738000Y-123304000D02*
X151104000Y-122937000D01*
X163062500Y-129500500D02*
X163062500Y-129500000D01*
X163332100Y-89361800D02*
X163145000Y-89174800D01*
X165675000Y-138013000D02*
X164987000Y-137325000D01*
X147500000Y-133500000D02*
X148536000Y-132464000D01*
%TO.N,/A2*%
X171202000Y-115160000D02*
X167838000Y-111796000D01*
X151562000Y-124178000D02*
X151562000Y-124356000D01*
X169766000Y-134141000D02*
X169766000Y-133585000D01*
X167838000Y-111796000D02*
X167838000Y-93724000D01*
X167400000Y-57000000D02*
X171750000Y-61350000D01*
X164525000Y-51625000D02*
X167400000Y-54500000D01*
X168062000Y-93500000D02*
X168062000Y-87212400D01*
X172700000Y-129711396D02*
X171202000Y-128213396D01*
X173937500Y-73962500D02*
X173100000Y-74800000D01*
X167400000Y-54500000D02*
X167400000Y-57000000D01*
X167838000Y-93724000D02*
X168062000Y-93500000D01*
X168062000Y-87212400D02*
X168621000Y-86654200D01*
X173937500Y-70000000D02*
X173937500Y-73962500D01*
X151562000Y-124178000D02*
X151562500Y-124177500D01*
X167950300Y-93611700D02*
X168062000Y-93500000D01*
X162000000Y-51625000D02*
X164525000Y-51625000D01*
X151562000Y-124000000D02*
X151562000Y-124178000D01*
X171750000Y-61350000D02*
X171750000Y-65671770D01*
X173100000Y-74800000D02*
X169627600Y-74800000D01*
X173937500Y-67859270D02*
X173937500Y-70000000D01*
X168062500Y-93500000D02*
X168062000Y-93500000D01*
X169627600Y-74800000D02*
X168621000Y-75806600D01*
X168621000Y-86654200D02*
X169226000Y-86654200D01*
X171202000Y-128213396D02*
X171202000Y-115160000D01*
X171750000Y-65671770D02*
X173937500Y-67859270D01*
X169766000Y-133585000D02*
X171715000Y-133585000D01*
X177625000Y-142000000D02*
X169766000Y-134141000D01*
X171715000Y-133585000D02*
X172700000Y-132600000D01*
X151562500Y-124177500D02*
X151562500Y-124000000D01*
X160791000Y-133585000D02*
X169766000Y-133585000D01*
X151562000Y-124356000D02*
X160791000Y-133585000D01*
X172700000Y-132600000D02*
X172700000Y-129711396D01*
X168621000Y-75806600D02*
X168621000Y-86654200D01*
%TO.N,/A3*%
X158400000Y-86000000D02*
X158400000Y-65837000D01*
X158400000Y-65837000D02*
X158231000Y-65668500D01*
X161362000Y-86000000D02*
X161480000Y-86118100D01*
X168564000Y-101780000D02*
X168564000Y-111786000D01*
X179989000Y-100097000D02*
X179989000Y-97867200D01*
X149562500Y-110000000D02*
X149562000Y-110000000D01*
X158062000Y-56898800D02*
X159732000Y-55229700D01*
X180550500Y-100658500D02*
X180551000Y-100658500D01*
X158062000Y-65500000D02*
X158062000Y-56898800D01*
X158400000Y-86000000D02*
X149562000Y-94837000D01*
X158231000Y-65668500D02*
X158062000Y-65500000D01*
X180550500Y-100658500D02*
X179989000Y-100097000D01*
X158231000Y-65668500D02*
X158062500Y-65500000D01*
X171652000Y-128027000D02*
X175125000Y-131500000D01*
X149562000Y-94837000D02*
X149562000Y-110000000D01*
X171652000Y-114873000D02*
X171652000Y-128027000D01*
X180551000Y-100658500D02*
X181112500Y-101220000D01*
X158400000Y-86000000D02*
X161362000Y-86000000D01*
X168564000Y-111786000D02*
X171652000Y-114873000D01*
X181112000Y-101220000D02*
X180550500Y-100658500D01*
%TO.N,/A4*%
X169752000Y-88559000D02*
X171105000Y-87206400D01*
X177610000Y-127366000D02*
X172200000Y-121956000D01*
X190062000Y-138000000D02*
X190587000Y-138524500D01*
X191112000Y-139049000D02*
X192394000Y-139049000D01*
X170105000Y-102296000D02*
X169124000Y-101314000D01*
X192800000Y-137275000D02*
X182891000Y-127366000D01*
X161508000Y-58813700D02*
X161508000Y-65738800D01*
X147562000Y-71500000D02*
X147894500Y-71167900D01*
X169124000Y-88559000D02*
X169752000Y-88559000D01*
X148227000Y-70835800D02*
X148227000Y-70145500D01*
X171105000Y-87206400D02*
X171105000Y-85292200D01*
X147894500Y-71167900D02*
X148227000Y-70835800D01*
X160618000Y-57924000D02*
X161508000Y-58813700D01*
X147894500Y-71167900D02*
X147562500Y-71499900D01*
X182891000Y-127366000D02*
X177610000Y-127366000D01*
X172759000Y-87206400D02*
X172932000Y-87380000D01*
X169124000Y-101314000D02*
X169124000Y-88559000D01*
X172200000Y-111145000D02*
X170105000Y-109050000D01*
X171105000Y-87206400D02*
X172759000Y-87206400D01*
X169124000Y-88559000D02*
X168992000Y-88559000D01*
X172200000Y-121956000D02*
X172200000Y-111145000D01*
X171105000Y-85292200D02*
X170335000Y-84522300D01*
X192394000Y-139049000D02*
X192800000Y-138643000D01*
X190587000Y-138524500D02*
X190062500Y-138000000D01*
X147562500Y-71499900D02*
X147562500Y-71500000D01*
X170105000Y-109050000D02*
X170105000Y-102296000D01*
X172932500Y-87380000D02*
X172932000Y-87380000D01*
X192800000Y-138643000D02*
X192800000Y-137275000D01*
X190587000Y-138524500D02*
X191112000Y-139049000D01*
%TD*%
%TA.AperFunction,Conductor*%
%TO.N,/GND*%
G36*
X154867527Y-133117502D02*
G01*
X154888501Y-133134405D01*
X158840128Y-137086033D01*
X158874153Y-137148343D01*
X158869088Y-137219158D01*
X158826541Y-137275994D01*
X158809213Y-137286889D01*
X158698462Y-137344543D01*
X158689734Y-137350039D01*
X158669677Y-137365099D01*
X158661223Y-137376427D01*
X158667968Y-137388758D01*
X159690115Y-138410905D01*
X159724141Y-138473217D01*
X159719076Y-138544032D01*
X159690115Y-138589095D01*
X158666737Y-139612473D01*
X158659977Y-139624853D01*
X158665258Y-139631907D01*
X158711969Y-139659203D01*
X158760693Y-139710841D01*
X158773764Y-139780624D01*
X158747033Y-139846396D01*
X158706584Y-139879752D01*
X158693607Y-139886507D01*
X158689474Y-139889610D01*
X158689471Y-139889612D01*
X158540907Y-140001157D01*
X158514965Y-140020635D01*
X158360629Y-140182138D01*
X158234743Y-140366680D01*
X158140688Y-140569305D01*
X158080989Y-140784570D01*
X158080440Y-140789704D01*
X158080440Y-140789706D01*
X158076141Y-140829938D01*
X158062735Y-140955385D01*
X158058259Y-140997267D01*
X158031131Y-141062876D01*
X157972839Y-141103405D01*
X157901889Y-141105984D01*
X157843877Y-141072973D01*
X155242768Y-138471863D01*
X158058050Y-138471863D01*
X158070309Y-138684477D01*
X158071745Y-138694697D01*
X158118565Y-138902446D01*
X158121645Y-138912275D01*
X158201770Y-139109603D01*
X158206413Y-139118794D01*
X158286460Y-139249420D01*
X158296916Y-139258880D01*
X158305694Y-139255096D01*
X159047978Y-138512812D01*
X159055592Y-138498868D01*
X159055461Y-138497035D01*
X159051210Y-138490420D01*
X158309849Y-137749059D01*
X158298313Y-137742759D01*
X158286031Y-137752382D01*
X158238089Y-137822662D01*
X158233004Y-137831613D01*
X158143338Y-138024783D01*
X158139775Y-138034470D01*
X158082864Y-138239681D01*
X158080933Y-138249800D01*
X158058302Y-138461574D01*
X158058050Y-138471863D01*
X155242768Y-138471863D01*
X154222988Y-137452083D01*
X150407905Y-133637000D01*
X150373879Y-133574688D01*
X150371000Y-133547905D01*
X150370999Y-133223500D01*
X150391001Y-133155380D01*
X150444656Y-133108887D01*
X150496999Y-133097500D01*
X154799406Y-133097500D01*
X154867527Y-133117502D01*
G37*
%TD.AperFunction*%
%TA.AperFunction,Conductor*%
G36*
X164202066Y-93565446D02*
G01*
X164247136Y-93594405D01*
X166561474Y-95908412D01*
X166578589Y-95925525D01*
X166612619Y-95987835D01*
X166615500Y-96014627D01*
X166615500Y-96744007D01*
X166595498Y-96812128D01*
X166541842Y-96858621D01*
X166471568Y-96868725D01*
X166438252Y-96859114D01*
X166313323Y-96803492D01*
X166313315Y-96803489D01*
X166307288Y-96800806D01*
X166213887Y-96780953D01*
X166126944Y-96762472D01*
X166126939Y-96762472D01*
X166120487Y-96761100D01*
X165929513Y-96761100D01*
X165923061Y-96762472D01*
X165923056Y-96762472D01*
X165836113Y-96780953D01*
X165742712Y-96800806D01*
X165736682Y-96803491D01*
X165736681Y-96803491D01*
X165574278Y-96875797D01*
X165574276Y-96875798D01*
X165568248Y-96878482D01*
X165413747Y-96990734D01*
X165285960Y-97132656D01*
X165190473Y-97298044D01*
X165131458Y-97479672D01*
X165130768Y-97486233D01*
X165130768Y-97486235D01*
X165123819Y-97552356D01*
X165111496Y-97669600D01*
X165112186Y-97676165D01*
X165118417Y-97735445D01*
X165131458Y-97859528D01*
X165190473Y-98041156D01*
X165193776Y-98046878D01*
X165193777Y-98046879D01*
X165232584Y-98114094D01*
X165249322Y-98183089D01*
X165226102Y-98250181D01*
X165212567Y-98266183D01*
X164967702Y-98511085D01*
X164959449Y-98518596D01*
X164952982Y-98522700D01*
X164923920Y-98553648D01*
X164906340Y-98572369D01*
X164903592Y-98575205D01*
X164886635Y-98592164D01*
X164886631Y-98592169D01*
X164883834Y-98594966D01*
X164881373Y-98598139D01*
X164873664Y-98607166D01*
X164843414Y-98639379D01*
X164833641Y-98657157D01*
X164822793Y-98673673D01*
X164810362Y-98689701D01*
X164807212Y-98696982D01*
X164792821Y-98730245D01*
X164787594Y-98740916D01*
X164766305Y-98779640D01*
X164761356Y-98798915D01*
X164725045Y-98859919D01*
X164661514Y-98891610D01*
X164595085Y-98885563D01*
X164477606Y-98841522D01*
X164462351Y-98837895D01*
X164411486Y-98832369D01*
X164404672Y-98832000D01*
X164378115Y-98832000D01*
X164362876Y-98836475D01*
X164361671Y-98837865D01*
X164360000Y-98845548D01*
X164360000Y-101729884D01*
X164364475Y-101745123D01*
X164365865Y-101746328D01*
X164373548Y-101747999D01*
X164404669Y-101747999D01*
X164411490Y-101747629D01*
X164462352Y-101742105D01*
X164477604Y-101738479D01*
X164598054Y-101693324D01*
X164613648Y-101684786D01*
X164684018Y-101632047D01*
X164750524Y-101607199D01*
X164819907Y-101622252D01*
X164835148Y-101632047D01*
X164913295Y-101690615D01*
X165049684Y-101741745D01*
X165111866Y-101748500D01*
X165608134Y-101748500D01*
X165670316Y-101741745D01*
X165806705Y-101690615D01*
X165923261Y-101603261D01*
X166010615Y-101486705D01*
X166061745Y-101350316D01*
X166068500Y-101288134D01*
X166068500Y-99291866D01*
X166068132Y-99288474D01*
X166068131Y-99288464D01*
X166066220Y-99270874D01*
X166078749Y-99200992D01*
X166102381Y-99168179D01*
X166400398Y-98870117D01*
X166462707Y-98836088D01*
X166533524Y-98841147D01*
X166590362Y-98883689D01*
X166615178Y-98950208D01*
X166615500Y-98959206D01*
X166615500Y-114044233D01*
X166614973Y-114055416D01*
X166613298Y-114062909D01*
X166613547Y-114070835D01*
X166613547Y-114070836D01*
X166615438Y-114130986D01*
X166615500Y-114134945D01*
X166615500Y-114162856D01*
X166615997Y-114166790D01*
X166615997Y-114166791D01*
X166616005Y-114166856D01*
X166616938Y-114178693D01*
X166618327Y-114222889D01*
X166623978Y-114242339D01*
X166627987Y-114261700D01*
X166630526Y-114281797D01*
X166633445Y-114289168D01*
X166633445Y-114289170D01*
X166646804Y-114322912D01*
X166650649Y-114334142D01*
X166656685Y-114354917D01*
X166662982Y-114376593D01*
X166667015Y-114383412D01*
X166667017Y-114383417D01*
X166673293Y-114394028D01*
X166681988Y-114411776D01*
X166689448Y-114430617D01*
X166694110Y-114437033D01*
X166694110Y-114437034D01*
X166715436Y-114466387D01*
X166721952Y-114476307D01*
X166740221Y-114507197D01*
X166744458Y-114514362D01*
X166758779Y-114528683D01*
X166771619Y-114543716D01*
X166783528Y-114560107D01*
X166789634Y-114565158D01*
X166817605Y-114588298D01*
X166826384Y-114596288D01*
X169006955Y-116776860D01*
X169040981Y-116839172D01*
X169035916Y-116909988D01*
X168993369Y-116966823D01*
X168926849Y-116991634D01*
X168917201Y-116991953D01*
X168792908Y-116991302D01*
X168784374Y-116991839D01*
X168521433Y-117026456D01*
X168513035Y-117028149D01*
X168257238Y-117098127D01*
X168249143Y-117100946D01*
X168005199Y-117204997D01*
X167997577Y-117208881D01*
X167770013Y-117345075D01*
X167762981Y-117349962D01*
X167700053Y-117400377D01*
X167691584Y-117412500D01*
X167697980Y-117423770D01*
X169185115Y-118910905D01*
X169219141Y-118973217D01*
X169214076Y-119044032D01*
X169185115Y-119089095D01*
X167697910Y-120576300D01*
X167690618Y-120589654D01*
X167697673Y-120599627D01*
X167728679Y-120625551D01*
X167735598Y-120630579D01*
X167960272Y-120771515D01*
X167967807Y-120775556D01*
X168209520Y-120884694D01*
X168217551Y-120887680D01*
X168471832Y-120963002D01*
X168480184Y-120964869D01*
X168742340Y-121004984D01*
X168750874Y-121005700D01*
X169016045Y-121009867D01*
X169024596Y-121009418D01*
X169287883Y-120977557D01*
X169296284Y-120975955D01*
X169552824Y-120908653D01*
X169560926Y-120905926D01*
X169805949Y-120804434D01*
X169813617Y-120800628D01*
X169927929Y-120733829D01*
X169996836Y-120716730D01*
X170064048Y-120739599D01*
X170108227Y-120795175D01*
X170117500Y-120842617D01*
X170117500Y-131672233D01*
X170116973Y-131683416D01*
X170115298Y-131690909D01*
X170115547Y-131698835D01*
X170115547Y-131698836D01*
X170117438Y-131758986D01*
X170117500Y-131762945D01*
X170117500Y-131790856D01*
X170117997Y-131794790D01*
X170117997Y-131794791D01*
X170118005Y-131794856D01*
X170118938Y-131806693D01*
X170120327Y-131850889D01*
X170125968Y-131870305D01*
X170125978Y-131870339D01*
X170129987Y-131889700D01*
X170132526Y-131909797D01*
X170135445Y-131917168D01*
X170135445Y-131917170D01*
X170148804Y-131950912D01*
X170152649Y-131962142D01*
X170158344Y-131981745D01*
X170164982Y-132004593D01*
X170169015Y-132011412D01*
X170169017Y-132011417D01*
X170175293Y-132022028D01*
X170183988Y-132039776D01*
X170191448Y-132058617D01*
X170196110Y-132065033D01*
X170196110Y-132065034D01*
X170217436Y-132094387D01*
X170223952Y-132104307D01*
X170227987Y-132111129D01*
X170246458Y-132142362D01*
X170252878Y-132148782D01*
X170253310Y-132149573D01*
X170256921Y-132154228D01*
X170256170Y-132154811D01*
X170286904Y-132211094D01*
X170289092Y-132224703D01*
X170292234Y-132254595D01*
X170303092Y-132357898D01*
X170306458Y-132389928D01*
X170365473Y-132571556D01*
X170460960Y-132736944D01*
X170465380Y-132741852D01*
X170469259Y-132747192D01*
X170468077Y-132748051D01*
X170495501Y-132805199D01*
X170486736Y-132875652D01*
X170441272Y-132930183D01*
X170371147Y-132951500D01*
X169837793Y-132951500D01*
X169814184Y-132949268D01*
X169813881Y-132949210D01*
X169813877Y-132949210D01*
X169806094Y-132947725D01*
X169750049Y-132951251D01*
X169742138Y-132951500D01*
X161105594Y-132951500D01*
X161037473Y-132931498D01*
X161016499Y-132914595D01*
X158450499Y-130348595D01*
X158416473Y-130286283D01*
X158421538Y-130215468D01*
X158464085Y-130158632D01*
X158530605Y-130133821D01*
X158539594Y-130133500D01*
X161994056Y-130133500D01*
X162062177Y-130153502D01*
X162108670Y-130207158D01*
X162113579Y-130219623D01*
X162130578Y-130270573D01*
X162132898Y-130277526D01*
X162225203Y-130426689D01*
X162349347Y-130550617D01*
X162355577Y-130554457D01*
X162355578Y-130554458D01*
X162377773Y-130568139D01*
X162498671Y-130642661D01*
X162505619Y-130644966D01*
X162505620Y-130644966D01*
X162658634Y-130695719D01*
X162658636Y-130695719D01*
X162665165Y-130697885D01*
X162768769Y-130708500D01*
X162819787Y-130708500D01*
X163322404Y-130708499D01*
X163390525Y-130728501D01*
X163411499Y-130745404D01*
X163598348Y-130932253D01*
X163605888Y-130940539D01*
X163610000Y-130947018D01*
X163615777Y-130952443D01*
X163659651Y-130993643D01*
X163662493Y-130996398D01*
X163682230Y-131016135D01*
X163685427Y-131018615D01*
X163694447Y-131026318D01*
X163726679Y-131056586D01*
X163733625Y-131060405D01*
X163733628Y-131060407D01*
X163744434Y-131066348D01*
X163760953Y-131077199D01*
X163776959Y-131089614D01*
X163784228Y-131092759D01*
X163784232Y-131092762D01*
X163817537Y-131107174D01*
X163828187Y-131112391D01*
X163866940Y-131133695D01*
X163874615Y-131135666D01*
X163874616Y-131135666D01*
X163886562Y-131138733D01*
X163905267Y-131145137D01*
X163923855Y-131153181D01*
X163931678Y-131154420D01*
X163931688Y-131154423D01*
X163967524Y-131160099D01*
X163979144Y-131162505D01*
X164010959Y-131170673D01*
X164021970Y-131173500D01*
X164042224Y-131173500D01*
X164061934Y-131175051D01*
X164081943Y-131178220D01*
X164089835Y-131177474D01*
X164108580Y-131175702D01*
X164125962Y-131174059D01*
X164137819Y-131173500D01*
X165347233Y-131173500D01*
X165358416Y-131174027D01*
X165365909Y-131175702D01*
X165373835Y-131175453D01*
X165373836Y-131175453D01*
X165433986Y-131173562D01*
X165437945Y-131173500D01*
X165465856Y-131173500D01*
X165469791Y-131173003D01*
X165469856Y-131172995D01*
X165481693Y-131172062D01*
X165513951Y-131171048D01*
X165517970Y-131170922D01*
X165525889Y-131170673D01*
X165545343Y-131165021D01*
X165564700Y-131161013D01*
X165576930Y-131159468D01*
X165576931Y-131159468D01*
X165584797Y-131158474D01*
X165592168Y-131155555D01*
X165592170Y-131155555D01*
X165625912Y-131142196D01*
X165637142Y-131138351D01*
X165671983Y-131128229D01*
X165671984Y-131128229D01*
X165679593Y-131126018D01*
X165686412Y-131121985D01*
X165686417Y-131121983D01*
X165697028Y-131115707D01*
X165714776Y-131107012D01*
X165733617Y-131099552D01*
X165769387Y-131073564D01*
X165779307Y-131067048D01*
X165810535Y-131048580D01*
X165810538Y-131048578D01*
X165817362Y-131044542D01*
X165831683Y-131030221D01*
X165846717Y-131017380D01*
X165856694Y-131010131D01*
X165863107Y-131005472D01*
X165891298Y-130971395D01*
X165899288Y-130962616D01*
X166204247Y-130657657D01*
X166212537Y-130650113D01*
X166219018Y-130646000D01*
X166265659Y-130596332D01*
X166268413Y-130593491D01*
X166288134Y-130573770D01*
X166290612Y-130570575D01*
X166298318Y-130561553D01*
X166308588Y-130550617D01*
X166328586Y-130529321D01*
X166338346Y-130511568D01*
X166349199Y-130495045D01*
X166356753Y-130485306D01*
X166361613Y-130479041D01*
X166379176Y-130438457D01*
X166384383Y-130427827D01*
X166405695Y-130389060D01*
X166407666Y-130381383D01*
X166407668Y-130381378D01*
X166410732Y-130369442D01*
X166417138Y-130350730D01*
X166422034Y-130339417D01*
X166425181Y-130332145D01*
X166429550Y-130304564D01*
X166432097Y-130288481D01*
X166434504Y-130276860D01*
X166443528Y-130241711D01*
X166443528Y-130241710D01*
X166445500Y-130234030D01*
X166445500Y-130213769D01*
X166447051Y-130194058D01*
X166448979Y-130181885D01*
X166450219Y-130174057D01*
X166446059Y-130130046D01*
X166445500Y-130118189D01*
X166445500Y-122259800D01*
X166446035Y-122248410D01*
X166447727Y-122240824D01*
X166445564Y-122172921D01*
X166445500Y-122168909D01*
X166445500Y-122141144D01*
X166444973Y-122136970D01*
X166444044Y-122125199D01*
X166442883Y-122088770D01*
X166442631Y-122080845D01*
X166440415Y-122073228D01*
X166437016Y-122061544D01*
X166432993Y-122042140D01*
X166431468Y-122030069D01*
X166431468Y-122030068D01*
X166430474Y-122022203D01*
X166414138Y-121980942D01*
X166410309Y-121969765D01*
X166400128Y-121934777D01*
X166397912Y-121927160D01*
X166387673Y-121909863D01*
X166378947Y-121892060D01*
X166374471Y-121880754D01*
X166374469Y-121880750D01*
X166371552Y-121873383D01*
X166345477Y-121837494D01*
X166338987Y-121827618D01*
X166320417Y-121796247D01*
X166320410Y-121796238D01*
X166316377Y-121789425D01*
X166303405Y-121776464D01*
X166302160Y-121775220D01*
X166289282Y-121760148D01*
X166282132Y-121750307D01*
X166277472Y-121743893D01*
X166243280Y-121715606D01*
X166234544Y-121707661D01*
X165942826Y-121416188D01*
X165293442Y-120767351D01*
X165259391Y-120705053D01*
X165256500Y-120678218D01*
X165256500Y-118983204D01*
X166902665Y-118983204D01*
X166917932Y-119247969D01*
X166919005Y-119256470D01*
X166970065Y-119516722D01*
X166972276Y-119524974D01*
X167058184Y-119775894D01*
X167061499Y-119783779D01*
X167180664Y-120020713D01*
X167185020Y-120028079D01*
X167314347Y-120216250D01*
X167324601Y-120224594D01*
X167338342Y-120217448D01*
X168542978Y-119012812D01*
X168550592Y-118998868D01*
X168550461Y-118997035D01*
X168546210Y-118990420D01*
X167338814Y-117783024D01*
X167326804Y-117776466D01*
X167315064Y-117785434D01*
X167206935Y-117935911D01*
X167202418Y-117943196D01*
X167078325Y-118177567D01*
X167074839Y-118185395D01*
X166983700Y-118434446D01*
X166981311Y-118442670D01*
X166924812Y-118701795D01*
X166923563Y-118710250D01*
X166902754Y-118974653D01*
X166902665Y-118983204D01*
X165256500Y-118983204D01*
X165256500Y-110830754D01*
X165257025Y-110819663D01*
X165258689Y-110812224D01*
X165257418Y-110771498D01*
X165256561Y-110744068D01*
X165256500Y-110740136D01*
X165256500Y-110712144D01*
X165256004Y-110708215D01*
X165255071Y-110696358D01*
X165253941Y-110660161D01*
X165253694Y-110652242D01*
X165248023Y-110632707D01*
X165244023Y-110613380D01*
X165242468Y-110601070D01*
X165242468Y-110601069D01*
X165241474Y-110593203D01*
X165225227Y-110552166D01*
X165221377Y-110540918D01*
X165211281Y-110506141D01*
X165211280Y-110506140D01*
X165209071Y-110498529D01*
X165198720Y-110481019D01*
X165190036Y-110463285D01*
X165185473Y-110451759D01*
X165185471Y-110451755D01*
X165182552Y-110444383D01*
X165156613Y-110408681D01*
X165150083Y-110398738D01*
X165127624Y-110360743D01*
X165122022Y-110355139D01*
X165122020Y-110355136D01*
X165113245Y-110346358D01*
X165100423Y-110331342D01*
X165093132Y-110321307D01*
X165088472Y-110314893D01*
X165054461Y-110286757D01*
X165045680Y-110278766D01*
X163612207Y-108844692D01*
X162904386Y-108136574D01*
X162870374Y-108074254D01*
X162867500Y-108047497D01*
X162867500Y-101874500D01*
X162887502Y-101806379D01*
X162941158Y-101759886D01*
X162993500Y-101748500D01*
X163208134Y-101748500D01*
X163270316Y-101741745D01*
X163406705Y-101690615D01*
X163484852Y-101632047D01*
X163551358Y-101607199D01*
X163620741Y-101622252D01*
X163635982Y-101632047D01*
X163706352Y-101684786D01*
X163721946Y-101693324D01*
X163842394Y-101738478D01*
X163857649Y-101742105D01*
X163908514Y-101747631D01*
X163915328Y-101748000D01*
X163941885Y-101748000D01*
X163957124Y-101743525D01*
X163958329Y-101742135D01*
X163960000Y-101734452D01*
X163960000Y-98850116D01*
X163955525Y-98834877D01*
X163954135Y-98833672D01*
X163946452Y-98832001D01*
X163915331Y-98832001D01*
X163908510Y-98832371D01*
X163857648Y-98837895D01*
X163842390Y-98841522D01*
X163816457Y-98851244D01*
X163745650Y-98856427D01*
X163683282Y-98822505D01*
X163649153Y-98760250D01*
X163654100Y-98689426D01*
X163678591Y-98648955D01*
X163699040Y-98626244D01*
X163780349Y-98485413D01*
X163791223Y-98466579D01*
X163791224Y-98466578D01*
X163794527Y-98460856D01*
X163853542Y-98279228D01*
X163860483Y-98213194D01*
X163872814Y-98095865D01*
X163873504Y-98089300D01*
X163864430Y-98002963D01*
X163854232Y-97905935D01*
X163854232Y-97905933D01*
X163853542Y-97899372D01*
X163794527Y-97717744D01*
X163699040Y-97552356D01*
X163639505Y-97486235D01*
X163575675Y-97415345D01*
X163575674Y-97415344D01*
X163571253Y-97410434D01*
X163416752Y-97298182D01*
X163410724Y-97295498D01*
X163410722Y-97295497D01*
X163248319Y-97223191D01*
X163248318Y-97223191D01*
X163242288Y-97220506D01*
X163148888Y-97200653D01*
X163061944Y-97182172D01*
X163061939Y-97182172D01*
X163055487Y-97180800D01*
X162993500Y-97180800D01*
X162925379Y-97160798D01*
X162878886Y-97107142D01*
X162867500Y-97054800D01*
X162867500Y-94776100D01*
X162887502Y-94707979D01*
X162941158Y-94661486D01*
X162993500Y-94650100D01*
X163121487Y-94650100D01*
X163127939Y-94648728D01*
X163127944Y-94648728D01*
X163214887Y-94630247D01*
X163308288Y-94610394D01*
X163342875Y-94594995D01*
X163476722Y-94535403D01*
X163476724Y-94535402D01*
X163482752Y-94532718D01*
X163637253Y-94420466D01*
X163690354Y-94361491D01*
X163760621Y-94283452D01*
X163760622Y-94283451D01*
X163765040Y-94278544D01*
X163860527Y-94113156D01*
X163919542Y-93931528D01*
X163936921Y-93766176D01*
X163963934Y-93700520D01*
X163973125Y-93690262D01*
X164068942Y-93594422D01*
X164131250Y-93560390D01*
X164202066Y-93565446D01*
G37*
%TD.AperFunction*%
%TD*%
M02*
