%TF.GenerationSoftware,KiCad,Pcbnew,(6.0.9)*%
%TF.CreationDate,2023-01-09T21:03:26+01:00*%
%TF.ProjectId,christmas_tree,63687269-7374-46d6-9173-5f747265652e,rev?*%
%TF.SameCoordinates,Original*%
%TF.FileFunction,Drillmap*%
%TF.FilePolarity,Positive*%
%FSLAX45Y45*%
G04 Gerber Fmt 4.5, Leading zero omitted, Abs format (unit mm)*
G04 Created by KiCad (PCBNEW (6.0.9)) date 2023-01-09 21:03:26*
%MOMM*%
%LPD*%
G01*
G04 APERTURE LIST*
%ADD10C,0.100000*%
%ADD11C,0.200000*%
%ADD12C,0.040000*%
%ADD13C,0.150000*%
G04 APERTURE END LIST*
D10*
X20200000Y-14600000D02*
X12200000Y-14600000D01*
X16200000Y-4600000D02*
X14200000Y-7600000D01*
X18200000Y-7600000D02*
X16200000Y-4600000D01*
X17700000Y-10600000D02*
X19200000Y-10600000D01*
X14700000Y-10600000D02*
X12200000Y-14600000D01*
X20200000Y-14600000D02*
X17700000Y-10600000D01*
X16900000Y-7600000D02*
X18200000Y-7600000D01*
X15500000Y-7600000D02*
X14200000Y-7600000D01*
X14700000Y-10600000D02*
X13200000Y-10600000D01*
X19200000Y-10600000D02*
X16900000Y-7600000D01*
X15500000Y-7600000D02*
X13200000Y-10600000D01*
D11*
D12*
X14012500Y-13830000D02*
X14052500Y-13870000D01*
X14052500Y-13830000D02*
X14012500Y-13870000D01*
X14229700Y-9975500D02*
X14269700Y-10015500D01*
X14269700Y-9975500D02*
X14229700Y-10015500D01*
X14730000Y-9214390D02*
X14770000Y-9254390D01*
X14770000Y-9214390D02*
X14730000Y-9254390D01*
X14802700Y-6994550D02*
X14842700Y-7034550D01*
X14842700Y-6994550D02*
X14802700Y-7034550D01*
X15404200Y-7456490D02*
X15444200Y-7496490D01*
X15444200Y-7456490D02*
X15404200Y-7496490D01*
X15432800Y-9343940D02*
X15472800Y-9383940D01*
X15472800Y-9343940D02*
X15432800Y-9383940D01*
X15523800Y-9975500D02*
X15563800Y-10015500D01*
X15563800Y-9975500D02*
X15523800Y-10015500D01*
X15547200Y-8355740D02*
X15587200Y-8395740D01*
X15587200Y-8355740D02*
X15547200Y-8395740D01*
X15695500Y-9473870D02*
X15735500Y-9513870D01*
X15735500Y-9473870D02*
X15695500Y-9513870D01*
X15768500Y-9280400D02*
X15808500Y-9320400D01*
X15808500Y-9280400D02*
X15768500Y-9320400D01*
X15946100Y-8867080D02*
X15986100Y-8907080D01*
X15986100Y-8867080D02*
X15946100Y-8907080D01*
X16005900Y-8774920D02*
X16045900Y-8814920D01*
X16045900Y-8774920D02*
X16005900Y-8814920D01*
X16022800Y-9502760D02*
X16062800Y-9542760D01*
X16062800Y-9502760D02*
X16022800Y-9542760D01*
X16028600Y-9998900D02*
X16068600Y-10038900D01*
X16068600Y-9998900D02*
X16028600Y-10038900D01*
X16083000Y-9820940D02*
X16123000Y-9860940D01*
X16123000Y-9820940D02*
X16083000Y-9860940D01*
X16128000Y-8591810D02*
X16168000Y-8631810D01*
X16168000Y-8591810D02*
X16128000Y-8631810D01*
X16130800Y-6553880D02*
X16170800Y-6593880D01*
X16170800Y-6553880D02*
X16130800Y-6593880D01*
X16131200Y-7074890D02*
X16171200Y-7114890D01*
X16171200Y-7074890D02*
X16131200Y-7114890D01*
X16204800Y-6652530D02*
X16244800Y-6692530D01*
X16244800Y-6652530D02*
X16204800Y-6692530D01*
X16209700Y-12707000D02*
X16249700Y-12747000D01*
X16249700Y-12707000D02*
X16209700Y-12747000D01*
X16263200Y-8970210D02*
X16303200Y-9010210D01*
X16303200Y-8970210D02*
X16263200Y-9010210D01*
X16276000Y-9788930D02*
X16316000Y-9828930D01*
X16316000Y-9788930D02*
X16276000Y-9828930D01*
X16282600Y-9354160D02*
X16322600Y-9394160D01*
X16322600Y-9354160D02*
X16282600Y-9394160D01*
X16330000Y-8030000D02*
X16370000Y-8070000D01*
X16370000Y-8030000D02*
X16330000Y-8070000D01*
X16396000Y-9345360D02*
X16436000Y-9385360D01*
X16436000Y-9345360D02*
X16396000Y-9385360D01*
X16397300Y-12223000D02*
X16437300Y-12263000D01*
X16437300Y-12223000D02*
X16397300Y-12263000D01*
X16582500Y-9746960D02*
X16622500Y-9786960D01*
X16622500Y-9746960D02*
X16582500Y-9786960D01*
X16836400Y-10158000D02*
X16876400Y-10198000D01*
X16876400Y-10158000D02*
X16836400Y-10198000D01*
X16879200Y-8835900D02*
X16919200Y-8875900D01*
X16919200Y-8835900D02*
X16879200Y-8875900D01*
X16902600Y-8645420D02*
X16942600Y-8685420D01*
X16942600Y-8645420D02*
X16902600Y-8685420D01*
X17013500Y-8432230D02*
X17053500Y-8472230D01*
X17053500Y-8432230D02*
X17013500Y-8472230D01*
X17070500Y-9823590D02*
X17110500Y-9863590D01*
X17110500Y-9823590D02*
X17070500Y-9863590D01*
X17100000Y-13200000D02*
X17140000Y-13240000D01*
X17140000Y-13200000D02*
X17100000Y-13240000D01*
X17178000Y-10751500D02*
X17218000Y-10791500D01*
X17218000Y-10751500D02*
X17178000Y-10791500D01*
X17498200Y-10674300D02*
X17538200Y-10714300D01*
X17538200Y-10674300D02*
X17498200Y-10714300D01*
X17956960Y-10124410D02*
X17996960Y-10164410D01*
X17996960Y-10124410D02*
X17956960Y-10164410D01*
X17978900Y-9766720D02*
X18018900Y-9806720D01*
X18018900Y-9766720D02*
X17978900Y-9806720D01*
D10*
X15992000Y-13850000D02*
G75*
G03*
X15992000Y-13850000I-50000J0D01*
G01*
X15992000Y-14104000D02*
G75*
G03*
X15992000Y-14104000I-50000J0D01*
G01*
X16246000Y-13850000D02*
G75*
G03*
X16246000Y-13850000I-50000J0D01*
G01*
X16246000Y-14104000D02*
G75*
G03*
X16246000Y-14104000I-50000J0D01*
G01*
X16500000Y-13850000D02*
G75*
G03*
X16500000Y-13850000I-50000J0D01*
G01*
X16500000Y-14104000D02*
G75*
G03*
X16500000Y-14104000I-50000J0D01*
G01*
D13*
X14842500Y-11825000D02*
X14842500Y-11975000D01*
X14767500Y-11900000D02*
X14917500Y-11900000D01*
X16891500Y-11825000D02*
X16891500Y-11975000D01*
X16816500Y-11900000D02*
X16966500Y-11900000D01*
D11*
X12452619Y-14915476D02*
X12452619Y-14715476D01*
X12500238Y-14715476D01*
X12528809Y-14725000D01*
X12547857Y-14744048D01*
X12557381Y-14763095D01*
X12566905Y-14801190D01*
X12566905Y-14829762D01*
X12557381Y-14867857D01*
X12547857Y-14886905D01*
X12528809Y-14905952D01*
X12500238Y-14915476D01*
X12452619Y-14915476D01*
X12652619Y-14915476D02*
X12652619Y-14782143D01*
X12652619Y-14820238D02*
X12662143Y-14801190D01*
X12671667Y-14791667D01*
X12690714Y-14782143D01*
X12709762Y-14782143D01*
X12776428Y-14915476D02*
X12776428Y-14782143D01*
X12776428Y-14715476D02*
X12766905Y-14725000D01*
X12776428Y-14734524D01*
X12785952Y-14725000D01*
X12776428Y-14715476D01*
X12776428Y-14734524D01*
X12900238Y-14915476D02*
X12881190Y-14905952D01*
X12871667Y-14886905D01*
X12871667Y-14715476D01*
X13005000Y-14915476D02*
X12985952Y-14905952D01*
X12976428Y-14886905D01*
X12976428Y-14715476D01*
X13233571Y-14915476D02*
X13233571Y-14715476D01*
X13300238Y-14858333D01*
X13366905Y-14715476D01*
X13366905Y-14915476D01*
X13547857Y-14915476D02*
X13547857Y-14810714D01*
X13538333Y-14791667D01*
X13519286Y-14782143D01*
X13481190Y-14782143D01*
X13462143Y-14791667D01*
X13547857Y-14905952D02*
X13528809Y-14915476D01*
X13481190Y-14915476D01*
X13462143Y-14905952D01*
X13452619Y-14886905D01*
X13452619Y-14867857D01*
X13462143Y-14848809D01*
X13481190Y-14839286D01*
X13528809Y-14839286D01*
X13547857Y-14829762D01*
X13643095Y-14782143D02*
X13643095Y-14982143D01*
X13643095Y-14791667D02*
X13662143Y-14782143D01*
X13700238Y-14782143D01*
X13719286Y-14791667D01*
X13728809Y-14801190D01*
X13738333Y-14820238D01*
X13738333Y-14877381D01*
X13728809Y-14896428D01*
X13719286Y-14905952D01*
X13700238Y-14915476D01*
X13662143Y-14915476D01*
X13643095Y-14905952D01*
X13824048Y-14896428D02*
X13833571Y-14905952D01*
X13824048Y-14915476D01*
X13814524Y-14905952D01*
X13824048Y-14896428D01*
X13824048Y-14915476D01*
X13824048Y-14791667D02*
X13833571Y-14801190D01*
X13824048Y-14810714D01*
X13814524Y-14801190D01*
X13824048Y-14791667D01*
X13824048Y-14810714D01*
D12*
X12155000Y-15225000D02*
X12195000Y-15265000D01*
X12195000Y-15225000D02*
X12155000Y-15265000D01*
D11*
X12490714Y-15135476D02*
X12509762Y-15135476D01*
X12528809Y-15145000D01*
X12538333Y-15154524D01*
X12547857Y-15173571D01*
X12557381Y-15211667D01*
X12557381Y-15259286D01*
X12547857Y-15297381D01*
X12538333Y-15316428D01*
X12528809Y-15325952D01*
X12509762Y-15335476D01*
X12490714Y-15335476D01*
X12471667Y-15325952D01*
X12462143Y-15316428D01*
X12452619Y-15297381D01*
X12443095Y-15259286D01*
X12443095Y-15211667D01*
X12452619Y-15173571D01*
X12462143Y-15154524D01*
X12471667Y-15145000D01*
X12490714Y-15135476D01*
X12643095Y-15316428D02*
X12652619Y-15325952D01*
X12643095Y-15335476D01*
X12633571Y-15325952D01*
X12643095Y-15316428D01*
X12643095Y-15335476D01*
X12824048Y-15202143D02*
X12824048Y-15335476D01*
X12776428Y-15125952D02*
X12728809Y-15268809D01*
X12852619Y-15268809D01*
X12966905Y-15135476D02*
X12985952Y-15135476D01*
X13005000Y-15145000D01*
X13014524Y-15154524D01*
X13024048Y-15173571D01*
X13033571Y-15211667D01*
X13033571Y-15259286D01*
X13024048Y-15297381D01*
X13014524Y-15316428D01*
X13005000Y-15325952D01*
X12985952Y-15335476D01*
X12966905Y-15335476D01*
X12947857Y-15325952D01*
X12938333Y-15316428D01*
X12928809Y-15297381D01*
X12919286Y-15259286D01*
X12919286Y-15211667D01*
X12928809Y-15173571D01*
X12938333Y-15154524D01*
X12947857Y-15145000D01*
X12966905Y-15135476D01*
X13157381Y-15135476D02*
X13176428Y-15135476D01*
X13195476Y-15145000D01*
X13205000Y-15154524D01*
X13214524Y-15173571D01*
X13224048Y-15211667D01*
X13224048Y-15259286D01*
X13214524Y-15297381D01*
X13205000Y-15316428D01*
X13195476Y-15325952D01*
X13176428Y-15335476D01*
X13157381Y-15335476D01*
X13138333Y-15325952D01*
X13128809Y-15316428D01*
X13119286Y-15297381D01*
X13109762Y-15259286D01*
X13109762Y-15211667D01*
X13119286Y-15173571D01*
X13128809Y-15154524D01*
X13138333Y-15145000D01*
X13157381Y-15135476D01*
X13309762Y-15335476D02*
X13309762Y-15202143D01*
X13309762Y-15221190D02*
X13319286Y-15211667D01*
X13338333Y-15202143D01*
X13366905Y-15202143D01*
X13385952Y-15211667D01*
X13395476Y-15230714D01*
X13395476Y-15335476D01*
X13395476Y-15230714D02*
X13405000Y-15211667D01*
X13424048Y-15202143D01*
X13452619Y-15202143D01*
X13471667Y-15211667D01*
X13481190Y-15230714D01*
X13481190Y-15335476D01*
X13576428Y-15335476D02*
X13576428Y-15202143D01*
X13576428Y-15221190D02*
X13585952Y-15211667D01*
X13605000Y-15202143D01*
X13633571Y-15202143D01*
X13652619Y-15211667D01*
X13662143Y-15230714D01*
X13662143Y-15335476D01*
X13662143Y-15230714D02*
X13671667Y-15211667D01*
X13690714Y-15202143D01*
X13719286Y-15202143D01*
X13738333Y-15211667D01*
X13747857Y-15230714D01*
X13747857Y-15335476D01*
X14138333Y-15125952D02*
X13966905Y-15383095D01*
X14395476Y-15135476D02*
X14414524Y-15135476D01*
X14433571Y-15145000D01*
X14443095Y-15154524D01*
X14452619Y-15173571D01*
X14462143Y-15211667D01*
X14462143Y-15259286D01*
X14452619Y-15297381D01*
X14443095Y-15316428D01*
X14433571Y-15325952D01*
X14414524Y-15335476D01*
X14395476Y-15335476D01*
X14376428Y-15325952D01*
X14366905Y-15316428D01*
X14357381Y-15297381D01*
X14347857Y-15259286D01*
X14347857Y-15211667D01*
X14357381Y-15173571D01*
X14366905Y-15154524D01*
X14376428Y-15145000D01*
X14395476Y-15135476D01*
X14547857Y-15316428D02*
X14557381Y-15325952D01*
X14547857Y-15335476D01*
X14538333Y-15325952D01*
X14547857Y-15316428D01*
X14547857Y-15335476D01*
X14681190Y-15135476D02*
X14700238Y-15135476D01*
X14719286Y-15145000D01*
X14728809Y-15154524D01*
X14738333Y-15173571D01*
X14747857Y-15211667D01*
X14747857Y-15259286D01*
X14738333Y-15297381D01*
X14728809Y-15316428D01*
X14719286Y-15325952D01*
X14700238Y-15335476D01*
X14681190Y-15335476D01*
X14662143Y-15325952D01*
X14652619Y-15316428D01*
X14643095Y-15297381D01*
X14633571Y-15259286D01*
X14633571Y-15211667D01*
X14643095Y-15173571D01*
X14652619Y-15154524D01*
X14662143Y-15145000D01*
X14681190Y-15135476D01*
X14938333Y-15335476D02*
X14824048Y-15335476D01*
X14881190Y-15335476D02*
X14881190Y-15135476D01*
X14862143Y-15164048D01*
X14843095Y-15183095D01*
X14824048Y-15192619D01*
X15119286Y-15135476D02*
X15024048Y-15135476D01*
X15014524Y-15230714D01*
X15024048Y-15221190D01*
X15043095Y-15211667D01*
X15090714Y-15211667D01*
X15109762Y-15221190D01*
X15119286Y-15230714D01*
X15128809Y-15249762D01*
X15128809Y-15297381D01*
X15119286Y-15316428D01*
X15109762Y-15325952D01*
X15090714Y-15335476D01*
X15043095Y-15335476D01*
X15024048Y-15325952D01*
X15014524Y-15316428D01*
X15195476Y-15135476D02*
X15328809Y-15135476D01*
X15243095Y-15335476D01*
X15395476Y-15135476D02*
X15395476Y-15173571D01*
X15471667Y-15135476D02*
X15471667Y-15173571D01*
X15766905Y-15411667D02*
X15757381Y-15402143D01*
X15738333Y-15373571D01*
X15728809Y-15354524D01*
X15719286Y-15325952D01*
X15709762Y-15278333D01*
X15709762Y-15240238D01*
X15719286Y-15192619D01*
X15728809Y-15164048D01*
X15738333Y-15145000D01*
X15757381Y-15116428D01*
X15766905Y-15106905D01*
X15824048Y-15135476D02*
X15947857Y-15135476D01*
X15881190Y-15211667D01*
X15909762Y-15211667D01*
X15928809Y-15221190D01*
X15938333Y-15230714D01*
X15947857Y-15249762D01*
X15947857Y-15297381D01*
X15938333Y-15316428D01*
X15928809Y-15325952D01*
X15909762Y-15335476D01*
X15852619Y-15335476D01*
X15833571Y-15325952D01*
X15824048Y-15316428D01*
X16014524Y-15135476D02*
X16147857Y-15135476D01*
X16062143Y-15335476D01*
X16376428Y-15335476D02*
X16376428Y-15135476D01*
X16462143Y-15335476D02*
X16462143Y-15230714D01*
X16452619Y-15211667D01*
X16433571Y-15202143D01*
X16405000Y-15202143D01*
X16385952Y-15211667D01*
X16376428Y-15221190D01*
X16585952Y-15335476D02*
X16566905Y-15325952D01*
X16557381Y-15316428D01*
X16547857Y-15297381D01*
X16547857Y-15240238D01*
X16557381Y-15221190D01*
X16566905Y-15211667D01*
X16585952Y-15202143D01*
X16614524Y-15202143D01*
X16633571Y-15211667D01*
X16643095Y-15221190D01*
X16652619Y-15240238D01*
X16652619Y-15297381D01*
X16643095Y-15316428D01*
X16633571Y-15325952D01*
X16614524Y-15335476D01*
X16585952Y-15335476D01*
X16766905Y-15335476D02*
X16747857Y-15325952D01*
X16738333Y-15306905D01*
X16738333Y-15135476D01*
X16919286Y-15325952D02*
X16900238Y-15335476D01*
X16862143Y-15335476D01*
X16843095Y-15325952D01*
X16833571Y-15306905D01*
X16833571Y-15230714D01*
X16843095Y-15211667D01*
X16862143Y-15202143D01*
X16900238Y-15202143D01*
X16919286Y-15211667D01*
X16928810Y-15230714D01*
X16928810Y-15249762D01*
X16833571Y-15268809D01*
X17005000Y-15325952D02*
X17024048Y-15335476D01*
X17062143Y-15335476D01*
X17081190Y-15325952D01*
X17090714Y-15306905D01*
X17090714Y-15297381D01*
X17081190Y-15278333D01*
X17062143Y-15268809D01*
X17033571Y-15268809D01*
X17014524Y-15259286D01*
X17005000Y-15240238D01*
X17005000Y-15230714D01*
X17014524Y-15211667D01*
X17033571Y-15202143D01*
X17062143Y-15202143D01*
X17081190Y-15211667D01*
X17157381Y-15411667D02*
X17166905Y-15402143D01*
X17185952Y-15373571D01*
X17195476Y-15354524D01*
X17205000Y-15325952D01*
X17214524Y-15278333D01*
X17214524Y-15240238D01*
X17205000Y-15192619D01*
X17195476Y-15164048D01*
X17185952Y-15145000D01*
X17166905Y-15116428D01*
X17157381Y-15106905D01*
D10*
X12195000Y-15509000D02*
G75*
G03*
X12195000Y-15509000I-50000J0D01*
G01*
D11*
X12557381Y-15599476D02*
X12443095Y-15599476D01*
X12500238Y-15599476D02*
X12500238Y-15399476D01*
X12481190Y-15428048D01*
X12462143Y-15447095D01*
X12443095Y-15456619D01*
X12643095Y-15580428D02*
X12652619Y-15589952D01*
X12643095Y-15599476D01*
X12633571Y-15589952D01*
X12643095Y-15580428D01*
X12643095Y-15599476D01*
X12776428Y-15399476D02*
X12795476Y-15399476D01*
X12814524Y-15409000D01*
X12824048Y-15418524D01*
X12833571Y-15437571D01*
X12843095Y-15475667D01*
X12843095Y-15523286D01*
X12833571Y-15561381D01*
X12824048Y-15580428D01*
X12814524Y-15589952D01*
X12795476Y-15599476D01*
X12776428Y-15599476D01*
X12757381Y-15589952D01*
X12747857Y-15580428D01*
X12738333Y-15561381D01*
X12728809Y-15523286D01*
X12728809Y-15475667D01*
X12738333Y-15437571D01*
X12747857Y-15418524D01*
X12757381Y-15409000D01*
X12776428Y-15399476D01*
X12966905Y-15399476D02*
X12985952Y-15399476D01*
X13005000Y-15409000D01*
X13014524Y-15418524D01*
X13024048Y-15437571D01*
X13033571Y-15475667D01*
X13033571Y-15523286D01*
X13024048Y-15561381D01*
X13014524Y-15580428D01*
X13005000Y-15589952D01*
X12985952Y-15599476D01*
X12966905Y-15599476D01*
X12947857Y-15589952D01*
X12938333Y-15580428D01*
X12928809Y-15561381D01*
X12919286Y-15523286D01*
X12919286Y-15475667D01*
X12928809Y-15437571D01*
X12938333Y-15418524D01*
X12947857Y-15409000D01*
X12966905Y-15399476D01*
X13157381Y-15399476D02*
X13176428Y-15399476D01*
X13195476Y-15409000D01*
X13205000Y-15418524D01*
X13214524Y-15437571D01*
X13224048Y-15475667D01*
X13224048Y-15523286D01*
X13214524Y-15561381D01*
X13205000Y-15580428D01*
X13195476Y-15589952D01*
X13176428Y-15599476D01*
X13157381Y-15599476D01*
X13138333Y-15589952D01*
X13128809Y-15580428D01*
X13119286Y-15561381D01*
X13109762Y-15523286D01*
X13109762Y-15475667D01*
X13119286Y-15437571D01*
X13128809Y-15418524D01*
X13138333Y-15409000D01*
X13157381Y-15399476D01*
X13309762Y-15599476D02*
X13309762Y-15466143D01*
X13309762Y-15485190D02*
X13319286Y-15475667D01*
X13338333Y-15466143D01*
X13366905Y-15466143D01*
X13385952Y-15475667D01*
X13395476Y-15494714D01*
X13395476Y-15599476D01*
X13395476Y-15494714D02*
X13405000Y-15475667D01*
X13424048Y-15466143D01*
X13452619Y-15466143D01*
X13471667Y-15475667D01*
X13481190Y-15494714D01*
X13481190Y-15599476D01*
X13576428Y-15599476D02*
X13576428Y-15466143D01*
X13576428Y-15485190D02*
X13585952Y-15475667D01*
X13605000Y-15466143D01*
X13633571Y-15466143D01*
X13652619Y-15475667D01*
X13662143Y-15494714D01*
X13662143Y-15599476D01*
X13662143Y-15494714D02*
X13671667Y-15475667D01*
X13690714Y-15466143D01*
X13719286Y-15466143D01*
X13738333Y-15475667D01*
X13747857Y-15494714D01*
X13747857Y-15599476D01*
X14138333Y-15389952D02*
X13966905Y-15647095D01*
X14395476Y-15399476D02*
X14414524Y-15399476D01*
X14433571Y-15409000D01*
X14443095Y-15418524D01*
X14452619Y-15437571D01*
X14462143Y-15475667D01*
X14462143Y-15523286D01*
X14452619Y-15561381D01*
X14443095Y-15580428D01*
X14433571Y-15589952D01*
X14414524Y-15599476D01*
X14395476Y-15599476D01*
X14376428Y-15589952D01*
X14366905Y-15580428D01*
X14357381Y-15561381D01*
X14347857Y-15523286D01*
X14347857Y-15475667D01*
X14357381Y-15437571D01*
X14366905Y-15418524D01*
X14376428Y-15409000D01*
X14395476Y-15399476D01*
X14547857Y-15580428D02*
X14557381Y-15589952D01*
X14547857Y-15599476D01*
X14538333Y-15589952D01*
X14547857Y-15580428D01*
X14547857Y-15599476D01*
X14681190Y-15399476D02*
X14700238Y-15399476D01*
X14719286Y-15409000D01*
X14728809Y-15418524D01*
X14738333Y-15437571D01*
X14747857Y-15475667D01*
X14747857Y-15523286D01*
X14738333Y-15561381D01*
X14728809Y-15580428D01*
X14719286Y-15589952D01*
X14700238Y-15599476D01*
X14681190Y-15599476D01*
X14662143Y-15589952D01*
X14652619Y-15580428D01*
X14643095Y-15561381D01*
X14633571Y-15523286D01*
X14633571Y-15475667D01*
X14643095Y-15437571D01*
X14652619Y-15418524D01*
X14662143Y-15409000D01*
X14681190Y-15399476D01*
X14814524Y-15399476D02*
X14938333Y-15399476D01*
X14871667Y-15475667D01*
X14900238Y-15475667D01*
X14919286Y-15485190D01*
X14928809Y-15494714D01*
X14938333Y-15513762D01*
X14938333Y-15561381D01*
X14928809Y-15580428D01*
X14919286Y-15589952D01*
X14900238Y-15599476D01*
X14843095Y-15599476D01*
X14824048Y-15589952D01*
X14814524Y-15580428D01*
X15033571Y-15599476D02*
X15071667Y-15599476D01*
X15090714Y-15589952D01*
X15100238Y-15580428D01*
X15119286Y-15551857D01*
X15128809Y-15513762D01*
X15128809Y-15437571D01*
X15119286Y-15418524D01*
X15109762Y-15409000D01*
X15090714Y-15399476D01*
X15052619Y-15399476D01*
X15033571Y-15409000D01*
X15024048Y-15418524D01*
X15014524Y-15437571D01*
X15014524Y-15485190D01*
X15024048Y-15504238D01*
X15033571Y-15513762D01*
X15052619Y-15523286D01*
X15090714Y-15523286D01*
X15109762Y-15513762D01*
X15119286Y-15504238D01*
X15128809Y-15485190D01*
X15300238Y-15466143D02*
X15300238Y-15599476D01*
X15252619Y-15389952D02*
X15205000Y-15532809D01*
X15328809Y-15532809D01*
X15395476Y-15399476D02*
X15395476Y-15437571D01*
X15471667Y-15399476D02*
X15471667Y-15437571D01*
X15766905Y-15675667D02*
X15757381Y-15666143D01*
X15738333Y-15637571D01*
X15728809Y-15618524D01*
X15719286Y-15589952D01*
X15709762Y-15542333D01*
X15709762Y-15504238D01*
X15719286Y-15456619D01*
X15728809Y-15428048D01*
X15738333Y-15409000D01*
X15757381Y-15380428D01*
X15766905Y-15370905D01*
X15928809Y-15399476D02*
X15890714Y-15399476D01*
X15871667Y-15409000D01*
X15862143Y-15418524D01*
X15843095Y-15447095D01*
X15833571Y-15485190D01*
X15833571Y-15561381D01*
X15843095Y-15580428D01*
X15852619Y-15589952D01*
X15871667Y-15599476D01*
X15909762Y-15599476D01*
X15928809Y-15589952D01*
X15938333Y-15580428D01*
X15947857Y-15561381D01*
X15947857Y-15513762D01*
X15938333Y-15494714D01*
X15928809Y-15485190D01*
X15909762Y-15475667D01*
X15871667Y-15475667D01*
X15852619Y-15485190D01*
X15843095Y-15494714D01*
X15833571Y-15513762D01*
X16185952Y-15599476D02*
X16185952Y-15399476D01*
X16271667Y-15599476D02*
X16271667Y-15494714D01*
X16262143Y-15475667D01*
X16243095Y-15466143D01*
X16214524Y-15466143D01*
X16195476Y-15475667D01*
X16185952Y-15485190D01*
X16395476Y-15599476D02*
X16376428Y-15589952D01*
X16366905Y-15580428D01*
X16357381Y-15561381D01*
X16357381Y-15504238D01*
X16366905Y-15485190D01*
X16376428Y-15475667D01*
X16395476Y-15466143D01*
X16424048Y-15466143D01*
X16443095Y-15475667D01*
X16452619Y-15485190D01*
X16462143Y-15504238D01*
X16462143Y-15561381D01*
X16452619Y-15580428D01*
X16443095Y-15589952D01*
X16424048Y-15599476D01*
X16395476Y-15599476D01*
X16576428Y-15599476D02*
X16557381Y-15589952D01*
X16547857Y-15570905D01*
X16547857Y-15399476D01*
X16728809Y-15589952D02*
X16709762Y-15599476D01*
X16671667Y-15599476D01*
X16652619Y-15589952D01*
X16643095Y-15570905D01*
X16643095Y-15494714D01*
X16652619Y-15475667D01*
X16671667Y-15466143D01*
X16709762Y-15466143D01*
X16728809Y-15475667D01*
X16738333Y-15494714D01*
X16738333Y-15513762D01*
X16643095Y-15532809D01*
X16814524Y-15589952D02*
X16833571Y-15599476D01*
X16871667Y-15599476D01*
X16890714Y-15589952D01*
X16900238Y-15570905D01*
X16900238Y-15561381D01*
X16890714Y-15542333D01*
X16871667Y-15532809D01*
X16843095Y-15532809D01*
X16824048Y-15523286D01*
X16814524Y-15504238D01*
X16814524Y-15494714D01*
X16824048Y-15475667D01*
X16843095Y-15466143D01*
X16871667Y-15466143D01*
X16890714Y-15475667D01*
X16966905Y-15675667D02*
X16976429Y-15666143D01*
X16995476Y-15637571D01*
X17005000Y-15618524D01*
X17014524Y-15589952D01*
X17024048Y-15542333D01*
X17024048Y-15504238D01*
X17014524Y-15456619D01*
X17005000Y-15428048D01*
X16995476Y-15409000D01*
X16976429Y-15380428D01*
X16966905Y-15370905D01*
D13*
X12120000Y-15698000D02*
X12120000Y-15848000D01*
X12045000Y-15773000D02*
X12195000Y-15773000D01*
D11*
X12557381Y-15863476D02*
X12443095Y-15863476D01*
X12500238Y-15863476D02*
X12500238Y-15663476D01*
X12481190Y-15692048D01*
X12462143Y-15711095D01*
X12443095Y-15720619D01*
X12643095Y-15844428D02*
X12652619Y-15853952D01*
X12643095Y-15863476D01*
X12633571Y-15853952D01*
X12643095Y-15844428D01*
X12643095Y-15863476D01*
X12833571Y-15663476D02*
X12738333Y-15663476D01*
X12728809Y-15758714D01*
X12738333Y-15749190D01*
X12757381Y-15739667D01*
X12805000Y-15739667D01*
X12824048Y-15749190D01*
X12833571Y-15758714D01*
X12843095Y-15777762D01*
X12843095Y-15825381D01*
X12833571Y-15844428D01*
X12824048Y-15853952D01*
X12805000Y-15863476D01*
X12757381Y-15863476D01*
X12738333Y-15853952D01*
X12728809Y-15844428D01*
X12966905Y-15663476D02*
X12985952Y-15663476D01*
X13005000Y-15673000D01*
X13014524Y-15682524D01*
X13024048Y-15701571D01*
X13033571Y-15739667D01*
X13033571Y-15787286D01*
X13024048Y-15825381D01*
X13014524Y-15844428D01*
X13005000Y-15853952D01*
X12985952Y-15863476D01*
X12966905Y-15863476D01*
X12947857Y-15853952D01*
X12938333Y-15844428D01*
X12928809Y-15825381D01*
X12919286Y-15787286D01*
X12919286Y-15739667D01*
X12928809Y-15701571D01*
X12938333Y-15682524D01*
X12947857Y-15673000D01*
X12966905Y-15663476D01*
X13157381Y-15663476D02*
X13176428Y-15663476D01*
X13195476Y-15673000D01*
X13205000Y-15682524D01*
X13214524Y-15701571D01*
X13224048Y-15739667D01*
X13224048Y-15787286D01*
X13214524Y-15825381D01*
X13205000Y-15844428D01*
X13195476Y-15853952D01*
X13176428Y-15863476D01*
X13157381Y-15863476D01*
X13138333Y-15853952D01*
X13128809Y-15844428D01*
X13119286Y-15825381D01*
X13109762Y-15787286D01*
X13109762Y-15739667D01*
X13119286Y-15701571D01*
X13128809Y-15682524D01*
X13138333Y-15673000D01*
X13157381Y-15663476D01*
X13309762Y-15863476D02*
X13309762Y-15730143D01*
X13309762Y-15749190D02*
X13319286Y-15739667D01*
X13338333Y-15730143D01*
X13366905Y-15730143D01*
X13385952Y-15739667D01*
X13395476Y-15758714D01*
X13395476Y-15863476D01*
X13395476Y-15758714D02*
X13405000Y-15739667D01*
X13424048Y-15730143D01*
X13452619Y-15730143D01*
X13471667Y-15739667D01*
X13481190Y-15758714D01*
X13481190Y-15863476D01*
X13576428Y-15863476D02*
X13576428Y-15730143D01*
X13576428Y-15749190D02*
X13585952Y-15739667D01*
X13605000Y-15730143D01*
X13633571Y-15730143D01*
X13652619Y-15739667D01*
X13662143Y-15758714D01*
X13662143Y-15863476D01*
X13662143Y-15758714D02*
X13671667Y-15739667D01*
X13690714Y-15730143D01*
X13719286Y-15730143D01*
X13738333Y-15739667D01*
X13747857Y-15758714D01*
X13747857Y-15863476D01*
X14138333Y-15653952D02*
X13966905Y-15911095D01*
X14395476Y-15663476D02*
X14414524Y-15663476D01*
X14433571Y-15673000D01*
X14443095Y-15682524D01*
X14452619Y-15701571D01*
X14462143Y-15739667D01*
X14462143Y-15787286D01*
X14452619Y-15825381D01*
X14443095Y-15844428D01*
X14433571Y-15853952D01*
X14414524Y-15863476D01*
X14395476Y-15863476D01*
X14376428Y-15853952D01*
X14366905Y-15844428D01*
X14357381Y-15825381D01*
X14347857Y-15787286D01*
X14347857Y-15739667D01*
X14357381Y-15701571D01*
X14366905Y-15682524D01*
X14376428Y-15673000D01*
X14395476Y-15663476D01*
X14547857Y-15844428D02*
X14557381Y-15853952D01*
X14547857Y-15863476D01*
X14538333Y-15853952D01*
X14547857Y-15844428D01*
X14547857Y-15863476D01*
X14681190Y-15663476D02*
X14700238Y-15663476D01*
X14719286Y-15673000D01*
X14728809Y-15682524D01*
X14738333Y-15701571D01*
X14747857Y-15739667D01*
X14747857Y-15787286D01*
X14738333Y-15825381D01*
X14728809Y-15844428D01*
X14719286Y-15853952D01*
X14700238Y-15863476D01*
X14681190Y-15863476D01*
X14662143Y-15853952D01*
X14652619Y-15844428D01*
X14643095Y-15825381D01*
X14633571Y-15787286D01*
X14633571Y-15739667D01*
X14643095Y-15701571D01*
X14652619Y-15682524D01*
X14662143Y-15673000D01*
X14681190Y-15663476D01*
X14928809Y-15663476D02*
X14833571Y-15663476D01*
X14824048Y-15758714D01*
X14833571Y-15749190D01*
X14852619Y-15739667D01*
X14900238Y-15739667D01*
X14919286Y-15749190D01*
X14928809Y-15758714D01*
X14938333Y-15777762D01*
X14938333Y-15825381D01*
X14928809Y-15844428D01*
X14919286Y-15853952D01*
X14900238Y-15863476D01*
X14852619Y-15863476D01*
X14833571Y-15853952D01*
X14824048Y-15844428D01*
X15033571Y-15863476D02*
X15071667Y-15863476D01*
X15090714Y-15853952D01*
X15100238Y-15844428D01*
X15119286Y-15815857D01*
X15128809Y-15777762D01*
X15128809Y-15701571D01*
X15119286Y-15682524D01*
X15109762Y-15673000D01*
X15090714Y-15663476D01*
X15052619Y-15663476D01*
X15033571Y-15673000D01*
X15024048Y-15682524D01*
X15014524Y-15701571D01*
X15014524Y-15749190D01*
X15024048Y-15768238D01*
X15033571Y-15777762D01*
X15052619Y-15787286D01*
X15090714Y-15787286D01*
X15109762Y-15777762D01*
X15119286Y-15768238D01*
X15128809Y-15749190D01*
X15319286Y-15863476D02*
X15205000Y-15863476D01*
X15262143Y-15863476D02*
X15262143Y-15663476D01*
X15243095Y-15692048D01*
X15224048Y-15711095D01*
X15205000Y-15720619D01*
X15395476Y-15663476D02*
X15395476Y-15701571D01*
X15471667Y-15663476D02*
X15471667Y-15701571D01*
X15766905Y-15939667D02*
X15757381Y-15930143D01*
X15738333Y-15901571D01*
X15728809Y-15882524D01*
X15719286Y-15853952D01*
X15709762Y-15806333D01*
X15709762Y-15768238D01*
X15719286Y-15720619D01*
X15728809Y-15692048D01*
X15738333Y-15673000D01*
X15757381Y-15644428D01*
X15766905Y-15634905D01*
X15833571Y-15682524D02*
X15843095Y-15673000D01*
X15862143Y-15663476D01*
X15909762Y-15663476D01*
X15928809Y-15673000D01*
X15938333Y-15682524D01*
X15947857Y-15701571D01*
X15947857Y-15720619D01*
X15938333Y-15749190D01*
X15824048Y-15863476D01*
X15947857Y-15863476D01*
X16185952Y-15863476D02*
X16185952Y-15663476D01*
X16271667Y-15863476D02*
X16271667Y-15758714D01*
X16262143Y-15739667D01*
X16243095Y-15730143D01*
X16214524Y-15730143D01*
X16195476Y-15739667D01*
X16185952Y-15749190D01*
X16395476Y-15863476D02*
X16376428Y-15853952D01*
X16366905Y-15844428D01*
X16357381Y-15825381D01*
X16357381Y-15768238D01*
X16366905Y-15749190D01*
X16376428Y-15739667D01*
X16395476Y-15730143D01*
X16424048Y-15730143D01*
X16443095Y-15739667D01*
X16452619Y-15749190D01*
X16462143Y-15768238D01*
X16462143Y-15825381D01*
X16452619Y-15844428D01*
X16443095Y-15853952D01*
X16424048Y-15863476D01*
X16395476Y-15863476D01*
X16576428Y-15863476D02*
X16557381Y-15853952D01*
X16547857Y-15834905D01*
X16547857Y-15663476D01*
X16728809Y-15853952D02*
X16709762Y-15863476D01*
X16671667Y-15863476D01*
X16652619Y-15853952D01*
X16643095Y-15834905D01*
X16643095Y-15758714D01*
X16652619Y-15739667D01*
X16671667Y-15730143D01*
X16709762Y-15730143D01*
X16728809Y-15739667D01*
X16738333Y-15758714D01*
X16738333Y-15777762D01*
X16643095Y-15796809D01*
X16814524Y-15853952D02*
X16833571Y-15863476D01*
X16871667Y-15863476D01*
X16890714Y-15853952D01*
X16900238Y-15834905D01*
X16900238Y-15825381D01*
X16890714Y-15806333D01*
X16871667Y-15796809D01*
X16843095Y-15796809D01*
X16824048Y-15787286D01*
X16814524Y-15768238D01*
X16814524Y-15758714D01*
X16824048Y-15739667D01*
X16843095Y-15730143D01*
X16871667Y-15730143D01*
X16890714Y-15739667D01*
X16966905Y-15939667D02*
X16976429Y-15930143D01*
X16995476Y-15901571D01*
X17005000Y-15882524D01*
X17014524Y-15853952D01*
X17024048Y-15806333D01*
X17024048Y-15768238D01*
X17014524Y-15720619D01*
X17005000Y-15692048D01*
X16995476Y-15673000D01*
X16976429Y-15644428D01*
X16966905Y-15634905D01*
M02*
